<svg xmlns="http://www.w3.org/2000/svg" viewBox="0 0 148.93 185.18"><defs><style>.cls-1{fill:#401abd;}.cls-2{fill:#fff;}.cls-3{fill:#2d334f;}.cls-4{fill:#e8e5de;}.cls-5{fill:#0cedae;}</style></defs><g id="Capa_2" data-name="Capa 2"><g id="Capa_1-2" data-name="Capa 1"><path class="cls-1" d="M37.63,185.18c-.1-.39-.17-.68-.25-1q-4.79-19.53-9.58-39.07c-2.74-11.18-5.51-22.37-8.23-33.56-2.24-9.19-4.39-18.4-6.65-27.58-1.61-6.55-3.37-13.07-5-19.62-2.3-9.33-4.52-18.68-6.78-28-.32-1.33-.65-2.67-1-4-.06-.21-.11-.43-.17-.68.22-.07.37-.14.54-.18L15.22,28.2c4.66-1,9.33-2,14-3.1,9.36-2.17,18.71-4.39,28.07-6.58,1-.23,2-.4,3-.63,4.95-1.15,9.89-2.34,14.84-3.46Q86,12,96.89,9.62c5.56-1.21,11.12-2.38,16.67-3.56l.78-.14c.08.26.15.48.21.71q3.47,14,6.92,27.92c1.36,5.52,2.72,11,4,16.57,1.08,4.62,2.13,9.26,3.07,13.91,1.77,8.8,3.83,17.52,5.88,26.25q3.44,14.55,6.74,29.13c1.16,5.15,2.16,10.34,3.26,15.51q2,9.15,4,18.29c.15.73.32,1.47.48,2.21s0,.88-.69,1.08c-2.28.59-4.55,1.2-6.83,1.78-9.26,2.34-18.5,4.7-27.77,7-12.22,3-24.46,6-36.68,9-10.1,2.5-20.19,5.07-30.28,7.62-2.72.68-5.42,1.4-8.13,2.1Z"/><path class="cls-2" d="M41.58,176.75c-.07-.27-.12-.48-.17-.69q-4.33-17.7-8.68-35.38Q29,125.46,25.26,110.22C23.05,101.14,20.84,92.06,18.7,83c-.81-3.41-1.44-6.86-2.14-10.3C16,70,15.45,67.23,14.89,64.51c-1-4.78-1.93-9.57-3-14.35-.84-3.92-1.77-7.83-2.65-11.75-.13-.56-.25-1.11-.38-1.7.69-.18,1.3-.36,1.93-.48,4.73-.9,9.4-2.08,14.05-3.34,5-1.35,10.08-2.5,15.16-3.58l5.47-1.16,11.74-2.42c3-.61,5.91-1.23,8.86-1.86L81.66,20.5c2.6-.57,5.2-1.18,7.8-1.73,4.54-1,9.08-1.91,13.62-2.85,2.44-.5,4.88-1,7.32-1.44l.41-.05c.08.3.17.58.24.88,1.62,6.5,3.28,13,4.85,19.51q4,16.77,8,33.56c.78,3.32,1.44,6.68,2.16,10,.83,3.79,1.65,7.59,2.49,11.38,1.47,6.68,2.91,13.36,4.45,20,1.75,7.55,3.63,15.06,5.39,22.61.93,4,1.75,8,2.58,12,.43,2.11.78,4.24,1.16,6.36,0,.19,0,.39.06.66l-1,.26c-8.75,2.16-17.51,4.29-26.25,6.5-7,1.76-13.86,3.65-20.81,5.44q-14.73,3.79-29.48,7.54c-5.46,1.39-10.92,2.81-16.39,4.17-2,.51-4.12.92-6.18,1.37Z"/><path class="cls-3" d="M92.47,19.24l-1,.26C83,21.55,74.49,23.64,66,25.66q-8.3,2-16.61,3.83C44.2,30.65,39,31.72,33.78,32.86c-2.86.62-5.71,1.3-8.57,2l-.44.09c-.43-.78-3.23-15.39-3.28-17.09l.54-.17c3.68-.85,7.35-1.68,11-2.54,2.79-.65,5.57-1.32,8.36-2L46.15,12c.7-.17.69-.17.81-.91.27-1.59.52-3.19.83-4.78a10.74,10.74,0,0,1,1.09-2.92A6.6,6.6,0,0,1,56.49.25a9,9,0,0,1,5.57,4.54c.44.79.79,1.64,1.18,2.46l.32.73C72.37,6,81.18,4,90,1.78c.41,3,.79,5.87,1.2,8.76S92.05,16.32,92.47,19.24Z"/><path class="cls-2" d="M58.85,21.42c-4.11.86-8.22,1.67-12.32,2.58-4.68,1-9.34,2.17-14,3.24-1.21.28-2.43.5-3.65.73a2.26,2.26,0,0,1-.73.06.5.5,0,0,1-.36-.28c0-.21.16-.26.36-.27a8.35,8.35,0,0,0,1.32-.16c4.44-1,8.87-2,13.31-3Q48.1,23.11,53.44,22C58.66,21,63.89,20,69.11,18.88s10.5-2.24,15.75-3.37l3.58-.76c.23,0,.55-.18.63.14s-.28.32-.5.37c-3.95.87-7.89,1.74-11.84,2.58Q71,19,65.32,20.2c-2.15.44-4.31.83-6.47,1.24Z"/><path class="cls-2" d="M57.93,14.87l27-6.21,1.69-.39c.18,0,.38-.09.41.16,0,.09-.13.26-.25.31a2.11,2.11,0,0,1-.57.18c-5.38,1.25-10.76,2.51-16.14,3.74s-10.86,2.5-16.31,3.63C45.52,18,37.3,19.82,29.12,21.78c-.45.11-.9.22-1.36.29-.12,0-.25-.11-.38-.17a1.37,1.37,0,0,1,.27-.31A1,1,0,0,1,28,21.5c5.69-1.3,11.37-2.63,17.07-3.9C49.09,16.7,53.15,15.88,57.93,14.87Z"/><path class="cls-4" d="M51.19,158.47c-.81-3.54-1.6-7-2.38-10.43a2,2,0,0,1,.23-.14C52.51,147,56,146,59.45,145.09c5.58-1.39,11.17-2.7,16.77-4,6.89-1.63,13.77-3.27,20.67-4.85,4-.92,8.11-1.77,12.18-2.61,3.73-.78,7.48-1.52,11.22-2.25,2.12-.41,4.24-.78,6.35-1.17.15,0,.31,0,.54-.05.67,2.93,1.3,5.84,1.93,8.86l-.72.17c-5.86,1.44-11.74,2.82-17.58,4.32-6.22,1.59-12.4,3.31-18.61,4.92q-6.49,1.69-13,3.27c-7.43,1.78-14.86,3.52-22.29,5.29-1.61.39-3.21.86-4.82,1.3Z"/><path class="cls-4" d="M37.56,109.07c-1.06-3.49-2.1-6.9-3.15-10.37.6-.19,1.13-.39,1.68-.54,4-1.11,8-2.19,12-3.32,3.39-1,6.77-2,10.16-3,1.11-.32,2.23-.59,3.35-.88,5.3-1.37,10.63-2.69,15.91-4.14,3.92-1.08,7.79-2.31,11.68-3.48l.48-.12c.85,3.43,1.69,6.83,2.55,10.29-.19.08-.38.17-.58.24-4.38,1.44-8.78,2.85-13.26,4C73,99.14,67.55,100.55,62.16,102c-4.81,1.32-9.59,2.78-14.39,4.16-3.2.92-6.41,1.81-9.61,2.72Z"/><path class="cls-4" d="M54.2,78.55c-.73-3.33-1.46-6.59-2.19-9.9.32-.11.59-.21.86-.29,2.21-.65,4.41-1.35,6.64-2,3.58-1,7.16-1.92,10.75-2.82q11.05-2.76,22.12-5.44c3.38-.81,6.79-1.54,10.2-2.27,1.48-.31,3-.54,4.54-.83.36,1,.57,2,.86,3.05l.87,3,.92,3.11-.91.22c-4.6,1.09-9.21,2.13-13.8,3.29S86,70.15,81.42,71.36L67.58,75,55,78.36Z"/><path class="cls-4" d="M25.42,60.58c-.65-3.29-1.29-6.5-2-9.77.29-.09.49-.17.69-.21,3.45-.75,6.91-1.45,10.36-2.23,3.18-.72,6.35-1.49,9.51-2.28,2.57-.64,5.1-1.37,7.67-2,2.78-.68,5.58-1.29,8.36-1.95l16.7-4,.71-.14c.67,3.19,1.33,6.33,2,9.55-6,1.46-12.08,2.73-18.07,4.15s-12,2.88-17.92,4.36S31.52,59,25.42,60.58Z"/><path class="cls-4" d="M121.83,100.69c.78,3.47,1.56,6.92,2.35,10.44-.21.07-.41.15-.61.2-6.93,1.85-13.86,3.67-20.78,5.54-3.92,1-7.82,2.19-11.73,3.29l-2.83.82-2.7-11.48C97.58,106.29,109.64,103.35,121.83,100.69Z"/><path class="cls-4" d="M63,127.85c-.83-3.63-1.66-7.24-2.5-10.92,6.4-2.21,12.92-4.18,19.51-6,.89,3.9,1.76,7.74,2.65,11.61Z"/><path class="cls-4" d="M82.4,46.85c-.65-3.27-1.28-6.43-1.93-9.66,7-1.79,13.87-3.41,20.86-5.07.91,3.3,1.8,6.57,2.72,9.91C96.88,43.87,89.66,45.25,82.4,46.85Z"/><path class="cls-4" d="M118.55,85.33C111.87,88.09,105,89.79,98,91.77c-.88-3.44-1.55-6.89-2.28-10.4a9.17,9.17,0,0,1,.89-.29L112.24,77c1-.26,2-.54,3-.82l.86-.21C117,79.1,117.75,82.22,118.55,85.33Z"/><path class="cls-4" d="M28.49,75.53,47.3,70c.82,3.32,1.62,6.56,2.44,9.86l-.67.2c-3,.94-6.15,1.57-9.23,2.33-2.84.7-5.66,1.5-8.49,2.26l-.7.18A91.24,91.24,0,0,1,28.49,75.53Z"/><path class="cls-4" d="M55.9,118.25,59,129.08c-5.17,1.47-10.31,3-15.57,4.1l-2.74-10.47Z"/><path class="cls-5" d="M64.1,157,53,160.67c-1.08-1.88-2.17-3.68-3.16-5.54-1.78-3.3-3.48-6.63-5.23-9.95-.79-1.48-1.63-2.94-2.5-4.51,2-.79,4-1.45,6.08-2.15,1.2,2.26,2.39,4.51,3.59,6.75s2.39,4.45,3.67,6.81c0-.32.05-.48.05-.65a121,121,0,0,1,1.08-13.05c0-.35.13-.6.55-.72,2.15-.62,4.29-1.28,6.44-1.93l.43-.1c-.12,3.59-.33,7.15-.32,10.71S63.94,153.42,64.1,157Z"/><path class="cls-5" d="M51.07,107.28l-11,3.91c-.37-.83-.74-1.58-1.06-2.36a68.91,68.91,0,0,0-3.66-7.16c-1.37-2.51-2.68-5-4-7.58-.05-.1-.08-.2-.14-.36l6.58-2.19c2.05,4,4.26,7.79,6.22,11.8q-.36-6.72-.72-13.48l6.58-2.43C50.24,94.08,50.65,100.66,51.07,107.28Z"/><path class="cls-5" d="M31,42.54l5.42-1.14c-.32,6.63-.63,13.2-.95,19.79-.36.2-9.08,2.29-10,2.39C23.28,58.43,21.11,53.27,18.91,48c2.22-.81,4.39-1.45,6.6-2.11a4,4,0,0,1,.21.41A64.29,64.29,0,0,1,27.91,53,44.78,44.78,0,0,0,30,58.43a1.38,1.38,0,0,0,.1-.39,57.33,57.33,0,0,1,.46-8.69c.15-1.9.24-3.81.37-5.71C30.94,43.29,31,42.94,31,42.54Z"/></g></g></svg>