<svg xmlns="http://www.w3.org/2000/svg" viewBox="0 0 109.05 211.01"><defs><style>.cls-1{fill:none;stroke:#fff;stroke-miterlimit:10;}.cls-2{fill:#fff;}</style></defs><g id="Capa_2" data-name="Capa 2"><g id="Capa_1-2" data-name="Capa 1"><polyline class="cls-1" points="9.94 210.51 0.5 210.51 0.5 0.5 108.55 0.5 108.55 210.51 99.18 210.51"/><path class="cls-2" d="M41,156c.83.08,1.66.12,2.5.12,15,0,24.27-10.31,26.8-29.33.17-1.32.32-2.71.43-4.12q.27-3.47.27-7.27V11.65H25.9v4.14H67.79v99.6q0,3.7-.28,7c-.12,1.42-.27,2.79-.47,4.11C64.65,143.15,56.5,152,43.49,152a23,23,0,0,1-2.5-.14m-6.3-1.66a26.34,26.34,0,0,1-6.75-4.2,43.2,43.2,0,0,1-10-13l-2.23,2.9A44.57,44.57,0,0,0,28,150.73a29,29,0,0,0,6.74,3.74"/><path class="cls-2" d="M72.29,34.28a26.45,26.45,0,0,1,6.89,4.25,43.15,43.15,0,0,1,10,13l2.24-2.89A44.37,44.37,0,0,0,79.16,33.79,27.87,27.87,0,0,0,72.29,30m-5.87-1.43a23.48,23.48,0,0,0-2.79-.17c-15,0-24.27,10.32-26.8,29.34-.18,1.32-.32,2.71-.44,4.12q-.26,3.47-.26,7.27V172.87H81.22v-4.14H39.33V69.13q0-3.7.28-7c.11-1.42.27-2.79.47-4.11,2.38-16.61,10.54-25.43,23.55-25.43.78,0,2,0,2.78.12"/><path class="cls-2" d="M88.91,170.74a2,2,0,1,1-2-2.12A2,2,0,0,1,88.91,170.74Z"/><path class="cls-2" d="M23.53,13.77a2.08,2.08,0,1,1-2.05-2.12A2.06,2.06,0,0,1,23.53,13.77Z"/><path class="cls-2" d="M29.31,184.87v.07a1.31,1.31,0,0,0-1.26,1l-1.9,8.52H24.91v0l-1.58-5.13-1.16,5.16H20.93v0L18,184.94h-.45v-.07h1.69l2.89,9.39,1.15-5.12-1.3-4.2h-.44v-.07h3.79v.07h-1L24.05,186l-.2.9,2.26,7.35L28,185.89l.21-.95h-1v-.07h2.13Zm-5.5,1.91.2-.89.21-.95h-1Z"/><path class="cls-2" d="M58.17,188.44a2.35,2.35,0,0,1,1.49,1.13,2.38,2.38,0,0,1,0,2.38,5.53,5.53,0,0,1-.6.86A4.75,4.75,0,0,1,57.51,194a4.87,4.87,0,0,1-1.92.45h-.05a4.77,4.77,0,0,1-2-.45A4.71,4.71,0,0,1,52,192.81a4.76,4.76,0,0,1,0-6.32,4.71,4.71,0,0,1,1.56-1.17,4.77,4.77,0,0,1,2-.45h.05a4.87,4.87,0,0,1,1.92.45,4.75,4.75,0,0,1,1.57,1.17,4.87,4.87,0,0,1,1,1.91v0Zm-.48,0H52.07v2.45a3.52,3.52,0,0,0,3.47,3.47,4.71,4.71,0,0,0,3.49-1.6,4.65,4.65,0,0,0,.6-.85,2.32,2.32,0,0,0,0-2.31A2.28,2.28,0,0,0,57.69,188.44Zm1.33-.06a3.54,3.54,0,0,0-3.48-3.44h0a3.52,3.52,0,0,0-3.47,3.44Z"/><path class="cls-2" d="M92.33,189.65a4.78,4.78,0,0,1-1.2,3.16A4.71,4.71,0,0,1,89.57,194a4.77,4.77,0,0,1-2,.45h0A3.57,3.57,0,0,1,85,193.37a3.49,3.49,0,0,1-1-1.84v2.83h.44v.07H82.33v-.07h.44V180.75l-.42.19,0-.06,1.71-.77v7.66a3.49,3.49,0,0,1,1-1.84,3.57,3.57,0,0,1,2.54-1.06h0a4.77,4.77,0,0,1,2,.45,4.71,4.71,0,0,1,1.56,1.17A4.78,4.78,0,0,1,92.33,189.65Zm-1.26,1.24v-2.48a3.52,3.52,0,0,0-3.47-3.47h0A3.52,3.52,0,0,0,84,188.42v2.46a3.52,3.52,0,0,0,3.52,3.48h0a3.52,3.52,0,0,0,3.47-3.47Z"/><path class="cls-2" d="M24.2,207.35a3,3,0,0,1-.79,2.66h0l0,.05a3,3,0,0,1-1.91.86h-.21a3,3,0,0,1-1.78-.58l-.1-.08a.65.65,0,0,0-.36-.1.71.71,0,0,0-.69.73h-.07v-3h.07a2.86,2.86,0,0,0,.86,2.06,1.51,1.51,0,0,0,.23.21h0l.1.08a2.94,2.94,0,0,0,3.81-.29l0,0a2,2,0,0,0,.56-1.43,2,2,0,0,0-.6-1.42,1.93,1.93,0,0,0-.46-.35.88.88,0,0,0-.2-.09h0L19,204.91a1.32,1.32,0,0,1-.68-.82,1.69,1.69,0,0,1,.05-1,2.32,2.32,0,0,1,.54-.85l0,0,0,0,0,0a.61.61,0,0,0-.21.56c.1.56,1.06,1.09,2.08,1.59L22,205a5.72,5.72,0,0,1,1.33.85,4.12,4.12,0,0,1,.28.31A3,3,0,0,1,24.2,207.35Zm3.6,1.72v.1a1.75,1.75,0,0,0,.7,1.35,1.66,1.66,0,0,0,1,.34h0a2.91,2.91,0,0,0,1.75-.59l0,.05a3,3,0,0,1-1.79.6h0a3,3,0,0,1-1.76-.6,3,3,0,0,1-.88-1,3,3,0,0,1-.32-1.33h0v-6.52h-.44v-.07h.44V197a3.13,3.13,0,0,0-3.48.65,3.43,3.43,0,0,0-1,2.64,2.36,2.36,0,0,0,1,1.77h0a.7.7,0,0,0,.37.11.72.72,0,0,0,.74-.73h.06v2.91h-.06a2.9,2.9,0,0,0-.86-2,2.26,2.26,0,0,0-.29-.25h0a2.42,2.42,0,0,1-1-1.82,3.5,3.5,0,0,1,1-2.7,3.15,3.15,0,0,1,1.71-.89,3.23,3.23,0,0,1,1.82.21l.05,0a3,3,0,0,1,.94.65c.09.09.26.29.26.29v2.33a1.15,1.15,0,0,1,0,.26.76.76,0,0,1,0,.11,1.21,1.21,0,0,1-1.11.82h4.72v.07H27.8Z"/><path class="cls-2" d="M45.24,201.47v9.41h.44V211H44v-.57h0a3,3,0,0,1-1.75.56h0a3,3,0,0,1-1.75-.6,3,3,0,0,1-.88-1,2.9,2.9,0,0,1-.32-1.33v-6.5h-.44v-.07h2.13v.07H40.5v7.7a1.71,1.71,0,0,0,.7,1.35,1.73,1.73,0,0,0,1,.35h0A3,3,0,0,0,44,210.3v-8.83h-.44v-.07h2.13v.07Z"/><path class="cls-2" d="M63.82,210.88V211H62.13v-2.89a3.62,3.62,0,0,1-1,1.84,3.54,3.54,0,0,1-2.54,1h0a4.61,4.61,0,0,1-2-.44A4.78,4.78,0,0,1,55,203a4.62,4.62,0,0,1,1.57-1.17,4.77,4.77,0,0,1,2-.45h0a3.54,3.54,0,0,1,2.54,1,3.62,3.62,0,0,1,1,1.84v-7l-.43.19,0-.07,1.7-.76v14.24ZM62.13,205a3.53,3.53,0,0,0-3.53-3.48h0a3.52,3.52,0,0,0-3.48,3.47v2.48a3.5,3.5,0,0,0,3.48,3.46h0a3.53,3.53,0,0,0,3.53-3.48Z"/><path class="cls-2" d="M74.42,210.88V211H72.29v-.07h.44V202l-.43.19,0-.06,1.71-.77v9.5Zm-1.69-11.82a.63.63,0,1,1,.62.63A.62.62,0,0,1,72.73,199.06Z"/><path class="cls-2" d="M92.32,206.18a4.84,4.84,0,0,1-2.76,4.33,4.92,4.92,0,0,1-2,.44h0a4.92,4.92,0,0,1-2-.44,4.79,4.79,0,0,1,0-8.67,4.92,4.92,0,0,1,2-.44h0a4.79,4.79,0,0,1,4.68,4.78Zm-1.26-1.25a3.48,3.48,0,0,0-7,0v2.48a3.48,3.48,0,0,0,7,0Z"/></g></g></svg>