<svg xmlns="http://www.w3.org/2000/svg" viewBox="0 0 221 221"><defs><style>.cls-1{fill:#401abd;}.cls-2{fill:#fff;}</style></defs><g id="Capa_2" data-name="Capa 2"><g id="Capa_1-2" data-name="Capa 1"><rect class="cls-1" width="221" height="221" rx="20"/><path class="cls-2" d="M29.55,51.91a7.21,7.21,0,0,1-7.62,7.47H17.58V64.6a.81.81,0,0,1-.81.81H15.9a.81.81,0,0,1-.81-.81V45.16a.81.81,0,0,1,.81-.81h6A7.3,7.3,0,0,1,29.55,51.91Zm-2.4,0a5,5,0,0,0-5.22-5.22H17.58V57h4.35A5,5,0,0,0,27.15,51.91Z"/><path class="cls-2" d="M46.56,65.41h-1a1.23,1.23,0,0,1-1.08-.81s-.42-1.11-1.44-4.14H35c-1,3-1.44,4.14-1.44,4.14a1.23,1.23,0,0,1-1.08.81h-1A.56.56,0,0,1,31,64.6l6.63-19.44a1.23,1.23,0,0,1,1.08-.81h.72a1.23,1.23,0,0,1,1.08.81L47.1,64.6A.56.56,0,0,1,46.56,65.41Zm-4.29-7.29c-.12-.33-.24-.66-.36-1-1.2-3.54-2.25-7.41-2.88-9.75-.63,2.34-1.68,6.21-2.88,9.75-.12.36-.24.69-.36,1Z"/><path class="cls-2" d="M65.4,64.6c.18.45,0,.81-.48.81H64a1.43,1.43,0,0,1-1.17-.81s-.36-.9-1.17-2.76a5.44,5.44,0,0,0-5.1-3.66H54.09V64.6a.83.83,0,0,1-.84.81h-.84a.81.81,0,0,1-.81-.81V45.16a.81.81,0,0,1,.81-.81h6c5,0,7.62,3.15,7.62,7a6.4,6.4,0,0,1-4.71,6.48,8.73,8.73,0,0,1,2.7,3.66C64.86,63.37,65.4,64.6,65.4,64.6Zm-7-17.91H54.09v9.15h4.35c3.69,0,5.22-2.19,5.22-4.53S62.13,46.69,58.44,46.69Z"/><path class="cls-2" d="M83.6,45.13v.78a.79.79,0,0,1-.77.78H77.31V64.6a.81.81,0,0,1-.81.81h-.75a.81.81,0,0,1-.81-.81V46.69H69.42a.88.88,0,0,1-.78-.87v-.69a.79.79,0,0,1,.78-.78H82.83A.79.79,0,0,1,83.6,45.13Z"/><path class="cls-2" d="M103.38,45.16V64.6a.81.81,0,0,1-.81.81h-.51a1.92,1.92,0,0,1-1.38-.81L90.09,49.42V64.6a.81.81,0,0,1-.81.81h-.87a.81.81,0,0,1-.81-.81V45.16a.81.81,0,0,1,.81-.81h.33a2.14,2.14,0,0,1,1.41.81l10.74,15.45V45.16a.81.81,0,0,1,.81-.81h.87A.81.81,0,0,1,103.38,45.16Z"/><path class="cls-2" d="M111.33,46.69v6.54h6.75a.79.79,0,0,1,.78.78v.78a.79.79,0,0,1-.78.78h-6.75v7.5h9.39a.8.8,0,0,1,.78.81v.75a.77.77,0,0,1-.78.78h-11a.81.81,0,0,1-.81-.81V45.16a.81.81,0,0,1,.81-.81h11.13a.79.79,0,0,1,.77.78v.78a.79.79,0,0,1-.77.78Z"/><path class="cls-2" d="M139.73,64.6c.19.45,0,.81-.48.81h-.9a1.41,1.41,0,0,1-1.16-.81s-.36-.9-1.17-2.76a5.44,5.44,0,0,0-5.1-3.66h-2.49V64.6a.83.83,0,0,1-.84.81h-.84a.81.81,0,0,1-.81-.81V45.16a.81.81,0,0,1,.81-.81h6c5,0,7.62,3.15,7.62,7a6.4,6.4,0,0,1-4.71,6.48,8.72,8.72,0,0,1,2.69,3.66C139.19,63.37,139.73,64.6,139.73,64.6Zm-6.95-17.91h-4.35v9.15h4.35c3.68,0,5.22-2.19,5.22-4.53S136.46,46.69,132.78,46.69Z"/><path class="cls-2" d="M149.75,55c-2.87-.93-5.51-2.13-5.51-5.64,0-3.24,2.55-5.13,6.74-5.13a29.59,29.59,0,0,1,3.69.33c.72.12.93.42.78,1.2,0,.18-.09.33-.12.54-.15.69-.57.69-1.26.6a23,23,0,0,0-3-.3c-2.58,0-4.37.63-4.37,2.88,0,1.74,2.06,2.52,4.73,3.36,3.36,1.08,6,2.55,6,6.24s-2.37,6.48-7.22,6.48a18.49,18.49,0,0,1-4.11-.45c-.85-.21-1.06-.48-.9-1.26a6.31,6.31,0,0,1,.18-.72c.18-.66.83-.45,1.5-.3a14,14,0,0,0,3.33.36c2.84,0,4.73-1.17,4.73-4C155,57,152.67,55.93,149.75,55Z"/><path class="cls-2" d="M189.5,54.85c0,5.13-3,10.56-10.65,10.56H174a.81.81,0,0,1-.81-.81V45.16a.81.81,0,0,1,.81-.81h4.83C186.5,44.35,189.5,49.72,189.5,54.85Zm-2.49,0c0-4-1.86-8.16-8.16-8.16h-3.24V63.07h3.24C185.15,63.07,187,58.81,187,54.85Z"/><path class="cls-2" d="M196.4,46.69v6.54h6.75a.79.79,0,0,1,.78.78v.78a.79.79,0,0,1-.78.78H196.4v7.5h9.39a.8.8,0,0,1,.78.81v.75a.77.77,0,0,1-.78.78h-11a.81.81,0,0,1-.81-.81V45.16a.81.81,0,0,1,.81-.81h11.13a.79.79,0,0,1,.78.78v.78a.79.79,0,0,1-.78.78Z"/><path class="cls-2" d="M43.36,115.76a14.6,14.6,0,0,0,5.25-.93c.63-.18,1-.18,1.2.36l.93,2.49a1.26,1.26,0,0,1-.9,1.71,19.6,19.6,0,0,1-6.72,1.14c-6.51,0-10.14-4.47-10.14-10.68S36.61,99.2,43.12,99.2a18.64,18.64,0,0,1,6.6,1,1.3,1.3,0,0,1,1,1.71c-.18.48-.69,2-.84,2.49s-.54.6-1.2.42a16.72,16.72,0,0,0-5.28-.87c-3.24,0-4.89,2.07-4.89,5.88S40.12,115.76,43.36,115.76Z"/><path class="cls-2" d="M72.64,109.85c0,5.91-3.93,10.68-10.77,10.68s-10.8-4.77-10.8-10.68S55,99.2,61.87,99.2,72.64,104,72.64,109.85Zm-5.49,0c0-3.81-2-5.88-5.28-5.88s-5.31,2.07-5.31,5.88,2,5.91,5.31,5.91S67.15,113.69,67.15,109.85Z"/><path class="cls-2" d="M91,114.32c0,3.84-3.33,6.09-7.32,6.09H75.1a.83.83,0,0,1-.81-.84V100.13a.81.81,0,0,1,.81-.81h8.1c4,0,7.32,2.1,7.32,5.91a5.25,5.25,0,0,1-2.07,4.32A5.48,5.48,0,0,1,91,114.32ZM82.6,104.09l-2.82,0v3.21H82.6c1.68,0,2.46-.36,2.46-1.74S84.28,104.09,82.6,104.09Zm2.94,9.72c0-1.38-.75-1.92-2.43-1.92H79.78v3.87l3.33,0C84.79,115.73,85.54,115.19,85.54,113.81Z"/><path class="cls-2" d="M109,119.57c.18.45,0,.84-.48.84h-3.87a1.38,1.38,0,0,1-1.17-.84s-.42-.9-1.2-2.76S100.51,114,98.77,114h-.54v5.55a.84.84,0,0,1-.84.84H93.55a.83.83,0,0,1-.81-.84V100.13a.81.81,0,0,1,.81-.81h7.38c6,0,8.22,3.39,8.22,7.23a6.39,6.39,0,0,1-4,6.33,9.22,9.22,0,0,1,2.46,3.54C108.43,118.34,109,119.57,109,119.57Zm-8.52-15.48-2.22,0v5.19h2.22c2.76,0,3.33-1.2,3.33-2.58S103.21,104.09,100.45,104.09Z"/><path class="cls-2" d="M129.46,120.41h-4a1.3,1.3,0,0,1-1.11-.84l-1-2.91h-6.84l-1,2.91a1.26,1.26,0,0,1-1.08.84h-4a.56.56,0,0,1-.51-.84l6.6-19.44a1.27,1.27,0,0,1,1.11-.81h4.65a1.23,1.23,0,0,1,1.11.81L130,119.57A.58.58,0,0,1,129.46,120.41Zm-11.4-8.52h3.78c-.66-2.13-1.32-4.44-1.89-6.45C119.38,107.42,118.72,109.73,118.06,111.89Z"/><path class="cls-2" d="M150.88,100.13v19.44a.86.86,0,0,1-.84.84h-4.17a1.74,1.74,0,0,1-1.68-.9l-7-10.5v10.56a.83.83,0,0,1-.81.84h-3.87a.83.83,0,0,1-.81-.84V100.13a.81.81,0,0,1,.81-.81h3.57a2.09,2.09,0,0,1,1.8,1.08l7.47,11.22V100.13a.81.81,0,0,1,.81-.81H150A.83.83,0,0,1,150.88,100.13Z"/><path class="cls-2" d="M166.72,116.45v3.15a.78.78,0,0,1-.78.81H153.25c-.45,0-.69-.48-.69-.84v-2a4.38,4.38,0,0,1,.84-2.76c.57-1,4.08-6.75,6.54-10.77H153.7a.8.8,0,0,1-.81-.78V100.1a.8.8,0,0,1,.81-.78h11.67a1.24,1.24,0,0,1,1.26,1.29,9.25,9.25,0,0,1-1.26,4.83c-.69,1.11-3.93,6.42-6.24,10.23h6.81A.76.76,0,0,1,166.72,116.45Z"/><path class="cls-2" d="M187.39,120.41h-4a1.3,1.3,0,0,1-1.11-.84l-1-2.91h-6.84l-1,2.91a1.26,1.26,0,0,1-1.08.84h-4a.56.56,0,0,1-.51-.84l6.6-19.44a1.27,1.27,0,0,1,1.11-.81h4.65a1.23,1.23,0,0,1,1.11.81l6.63,19.44A.58.58,0,0,1,187.39,120.41ZM176,111.89h3.78c-.66-2.13-1.32-4.44-1.89-6.45C177.31,107.42,176.65,109.73,176,111.89Z"/><path class="cls-2" d="M79.1,164.85c0,5.91-3.92,10.68-10.76,10.68s-10.8-4.77-10.8-10.68,4-10.65,10.8-10.65S79.1,159,79.1,164.85Zm-5.48,0c0-3.81-2-5.88-5.28-5.88S63,161,63,164.85s2,5.91,5.31,5.91S73.62,168.69,73.62,164.85Z"/><path class="cls-2" d="M99.86,155.13v19.44a.85.85,0,0,1-.84.84H94.85a1.73,1.73,0,0,1-1.67-.9l-7-10.5v10.56a.83.83,0,0,1-.81.84H81.54a.83.83,0,0,1-.81-.84V155.13a.81.81,0,0,1,.81-.81h3.57a2.09,2.09,0,0,1,1.8,1.08l7.47,11.22V155.13a.81.81,0,0,1,.81-.81H99A.83.83,0,0,1,99.86,155.13Z"/><path class="cls-2" d="M117.21,171.45v3.15a.78.78,0,0,1-.78.81H103.35a.83.83,0,0,1-.81-.84V155.13a.81.81,0,0,1,.81-.81h3.78a.81.81,0,0,1,.81.81v15.54h8.49A.76.76,0,0,1,117.21,171.45Z"/><path class="cls-2" d="M124.35,155.13v19.44a.86.86,0,0,1-.84.84h-3.84a.83.83,0,0,1-.81-.84V155.13a.81.81,0,0,1,.81-.81h3.84A.83.83,0,0,1,124.35,155.13Z"/><path class="cls-2" d="M146.09,155.13v19.44a.86.86,0,0,1-.84.84h-4.17a1.74,1.74,0,0,1-1.68-.9l-7-10.5v10.56a.83.83,0,0,1-.81.84h-3.87a.83.83,0,0,1-.81-.84V155.13a.81.81,0,0,1,.81-.81h3.57a2.09,2.09,0,0,1,1.8,1.08l7.47,11.22V155.13a.81.81,0,0,1,.81-.81h3.84A.83.83,0,0,1,146.09,155.13Z"/><path class="cls-2" d="M154.19,159.06v3.24H160a.81.81,0,0,1,.81.81v3.15a.78.78,0,0,1-.81.78h-5.76v3.63h8.49a.76.76,0,0,1,.78.78v3.15a.78.78,0,0,1-.78.81H149.6a.83.83,0,0,1-.81-.84V155.13a.81.81,0,0,1,.81-.81h13.08a.77.77,0,0,1,.78.78v3.18a.77.77,0,0,1-.78.78Z"/></g></g></svg>