<svg xmlns="http://www.w3.org/2000/svg" viewBox="0 0 221 221"><defs><style>.cls-1{fill:#401abd;}.cls-2{fill:#fff;}</style></defs><g id="Capa_2" data-name="Capa 2"><g id="Capa_1-2" data-name="Capa 1"><rect class="cls-1" width="221" height="221" rx="20"/><path class="cls-2" d="M82,92.38V93a.76.76,0,0,1-.78.78H70.4a.77.77,0,0,1-.78-.78v-.66a.77.77,0,0,1,.78-.78h4.23V75.31l-3.9,1.08c-.45.12-1,.12-1.14-.3l-.11-.24a.77.77,0,0,1,.44-1L74.39,73a3.16,3.16,0,0,1,1.29-.27h.54a.81.81,0,0,1,.81.81v18h4.14A.76.76,0,0,1,82,92.38Z"/><path class="cls-2" d="M100.37,83.29c0,6.15-2.43,10.68-8.1,10.68s-8.12-4.53-8.12-10.68,2.42-10.65,8.12-10.65S100.37,77.14,100.37,83.29Zm-2.52,0c0-5.19-1.29-8.37-5.58-8.37s-5.61,3.18-5.61,8.37,1.29,8.37,5.61,8.37S97.85,88.51,97.85,83.29Z"/><path class="cls-2" d="M120.44,83.29c0,6.15-2.43,10.68-8.1,10.68s-8.12-4.53-8.12-10.68,2.43-10.65,8.12-10.65S120.44,77.14,120.44,83.29Zm-2.52,0c0-5.19-1.29-8.37-5.58-8.37s-5.61,3.18-5.61,8.37,1.29,8.37,5.61,8.37S117.92,88.51,117.92,83.29Z"/><path class="cls-2" d="M136.64,78.31c0,3.57-2,6.42-6.18,6.42s-6.15-2.85-6.15-6.42,2-6.39,6.15-6.39S136.64,74.77,136.64,78.31Zm-2.46,0c0-2.4-.87-4-3.72-4s-3.72,1.65-3.72,4,.87,4.08,3.72,4.08S134.18,80.74,134.18,78.31Zm9.72-6.66L134.06,95a1.34,1.34,0,0,1-1.14.81h-.45c-.45,0-.66-.36-.48-.81l9.84-23.31a1.46,1.46,0,0,1,1.17-.84h.45C143.9,70.81,144.11,71.2,143.9,71.65Zm7.71,15.93c0,3.54-2,6.39-6.18,6.39s-6.15-2.85-6.15-6.39,2-6.42,6.15-6.42S151.61,84,151.61,87.58Zm-2.46,0c0-2.43-.87-4.08-3.72-4.08s-3.69,1.65-3.69,4.08.87,4,3.69,4S149.15,90,149.15,87.58Z"/><path class="cls-2" d="M79.1,138.26c0,5.91-3.92,10.68-10.76,10.68s-10.8-4.77-10.8-10.68,4-10.65,10.8-10.65S79.1,132.38,79.1,138.26Zm-5.48,0c0-3.81-2-5.88-5.28-5.88S63,134.45,63,138.26s2,5.91,5.31,5.91S73.62,142.1,73.62,138.26Z"/><path class="cls-2" d="M99.86,128.54V148a.85.85,0,0,1-.84.84H94.85a1.73,1.73,0,0,1-1.67-.9l-7-10.5V148a.83.83,0,0,1-.81.84H81.54a.83.83,0,0,1-.81-.84V128.54a.81.81,0,0,1,.81-.81h3.57a2.09,2.09,0,0,1,1.8,1.08L94.38,140V128.54a.81.81,0,0,1,.81-.81H99A.83.83,0,0,1,99.86,128.54Z"/><path class="cls-2" d="M117.21,144.86V148a.78.78,0,0,1-.78.81H103.35a.83.83,0,0,1-.81-.84V128.54a.81.81,0,0,1,.81-.81h3.78a.81.81,0,0,1,.81.81v15.54h8.49A.76.76,0,0,1,117.21,144.86Z"/><path class="cls-2" d="M124.35,128.54V148a.86.86,0,0,1-.84.84h-3.84a.83.83,0,0,1-.81-.84V128.54a.81.81,0,0,1,.81-.81h3.84A.83.83,0,0,1,124.35,128.54Z"/><path class="cls-2" d="M146.09,128.54V148a.86.86,0,0,1-.84.84h-4.17a1.74,1.74,0,0,1-1.68-.9l-7-10.5V148a.83.83,0,0,1-.81.84h-3.87A.83.83,0,0,1,127,148V128.54a.81.81,0,0,1,.81-.81h3.57a2.09,2.09,0,0,1,1.8,1.08L140.6,140V128.54a.81.81,0,0,1,.81-.81h3.84A.83.83,0,0,1,146.09,128.54Z"/><path class="cls-2" d="M154.19,132.47v3.24H160a.81.81,0,0,1,.81.81v3.15a.78.78,0,0,1-.81.78h-5.76v3.63h8.49a.76.76,0,0,1,.78.78V148a.78.78,0,0,1-.78.81H149.6a.83.83,0,0,1-.81-.84V128.54a.81.81,0,0,1,.81-.81h13.08a.77.77,0,0,1,.78.78v3.18a.77.77,0,0,1-.78.78Z"/></g></g></svg>