<svg xmlns="http://www.w3.org/2000/svg" viewBox="0 0 221 221"><defs><style>.cls-1{fill:#401abd;}.cls-2{fill:#fff;}</style></defs><g id="Capa_2" data-name="Capa 2"><g id="Capa_1-2" data-name="Capa 1"><rect class="cls-1" width="221" height="221" rx="20"/><path class="cls-2" d="M61.1,55c-2.88-.93-5.52-2.13-5.52-5.64,0-3.24,2.55-5.13,6.75-5.13a29.59,29.59,0,0,1,3.69.33c.72.12.93.42.78,1.2,0,.18-.09.33-.12.54-.15.69-.57.69-1.26.6a23.13,23.13,0,0,0-3-.3c-2.58,0-4.38.63-4.38,2.88,0,1.74,2.07,2.52,4.74,3.36,3.36,1.08,6,2.55,6,6.24,0,3.54-2.37,6.48-7.23,6.48a18.56,18.56,0,0,1-4.11-.45c-.84-.21-1-.48-.9-1.26a6.31,6.31,0,0,1,.18-.72c.18-.66.84-.45,1.5-.3a14,14,0,0,0,3.33.36c2.85,0,4.74-1.17,4.74-4C66.35,57,64,55.91,61.1,55Z"/><path class="cls-2" d="M93.8,54.86A10.67,10.67,0,1,1,83.12,44.21,10.68,10.68,0,0,1,93.8,54.86Zm-2.49,0a8.18,8.18,0,1,0-16.35,0,8.18,8.18,0,1,0,16.35,0Z"/><path class="cls-2" d="M120,64.58a.74.74,0,0,1-.75.81h-.84a.91.91,0,0,1-.9-.81l-1.26-13.74-6,13.74a1.52,1.52,0,0,1-1.26.81h-.66a1.52,1.52,0,0,1-1.26-.81L101,50.6l-1.29,14a.88.88,0,0,1-.87.81h-.87a.72.72,0,0,1-.72-.81L99,45.14a.91.91,0,0,1,.9-.81h.3a1.39,1.39,0,0,1,1.17.81l7.32,16.77L116,45.14a1.46,1.46,0,0,1,1.11-.81h.3a.93.93,0,0,1,.84.81Z"/><path class="cls-2" d="M144.8,54.86a10.67,10.67,0,1,1-10.68-10.65A10.68,10.68,0,0,1,144.8,54.86Zm-2.49,0a8.18,8.18,0,1,0-16.35,0,8.18,8.18,0,1,0,16.35,0Z"/><path class="cls-2" d="M153.71,55c-2.88-.93-5.52-2.13-5.52-5.64,0-3.24,2.55-5.13,6.75-5.13a29.59,29.59,0,0,1,3.69.33c.72.12.93.42.78,1.2,0,.18-.09.33-.12.54-.15.69-.57.69-1.26.6a23.13,23.13,0,0,0-3-.3c-2.58,0-4.38.63-4.38,2.88,0,1.74,2.07,2.52,4.74,3.36,3.36,1.08,6,2.55,6,6.24,0,3.54-2.37,6.48-7.23,6.48a18.56,18.56,0,0,1-4.11-.45c-.84-.21-1.05-.48-.9-1.26a6.31,6.31,0,0,1,.18-.72c.18-.66.84-.45,1.5-.3a14,14,0,0,0,3.33.36c2.85,0,4.74-1.17,4.74-4C159,57,156.62,55.91,153.71,55Z"/><path class="cls-2" d="M45.59,104v3.24h5.76a.81.81,0,0,1,.81.81v3.15a.78.78,0,0,1-.81.78H45.59v3.63h8.49a.76.76,0,0,1,.78.78v3.15a.78.78,0,0,1-.78.81H41a.83.83,0,0,1-.81-.84V100.11A.81.81,0,0,1,41,99.3H54.08a.77.77,0,0,1,.78.78v3.18a.77.77,0,0,1-.78.78Z"/><path class="cls-2" d="M73.88,120.39H69.29a1.75,1.75,0,0,1-1.29-.84l-2.91-5-2.88,5a1.75,1.75,0,0,1-1.29.84H56.33c-.45,0-.6-.39-.33-.84l6.18-9.87-6-9.57c-.27-.45-.12-.81.33-.81H61.1a1.76,1.76,0,0,1,1.32.81l2.67,4.62,2.7-4.62a1.76,1.76,0,0,1,1.32-.81h4.56c.45,0,.6.36.33.81l-6,9.57,6.18,9.87C74.48,120,74.33,120.39,73.88,120.39Z"/><path class="cls-2" d="M92,106.77c0,3.81-2.22,7.59-8.22,7.59H81v5.19a.83.83,0,0,1-.81.84H76.34a.83.83,0,0,1-.81-.84V100.11a.81.81,0,0,1,.81-.81h7.41C89.75,99.3,92,102.93,92,106.77Zm-5.4,0c0-1.41-.57-2.7-3.3-2.7L81,104v5.55h2.25C86,109.59,86.57,108.15,86.57,106.77Z"/><path class="cls-2" d="M99.05,104v3.24h5.76a.81.81,0,0,1,.81.81v3.15a.78.78,0,0,1-.81.78H99.05v3.63h8.49a.76.76,0,0,1,.78.78v3.15a.78.78,0,0,1-.78.81H94.46a.83.83,0,0,1-.81-.84V100.11a.81.81,0,0,1,.81-.81h13.08a.77.77,0,0,1,.78.78v3.18a.77.77,0,0,1-.78.78Z"/><path class="cls-2" d="M126.23,119.55c.18.45,0,.84-.48.84h-3.87a1.38,1.38,0,0,1-1.17-.84s-.42-.9-1.2-2.76S117.77,114,116,114h-.54v5.55a.84.84,0,0,1-.84.84h-3.84a.83.83,0,0,1-.81-.84V100.11a.81.81,0,0,1,.81-.81h7.38c6,0,8.22,3.39,8.22,7.23a6.39,6.39,0,0,1-4,6.33,9.22,9.22,0,0,1,2.46,3.54C125.69,118.32,126.23,119.55,126.23,119.55Zm-8.52-15.48-2.22,0v5.19h2.22c2.76,0,3.33-1.2,3.33-2.58S120.47,104.07,117.71,104.07Z"/><path class="cls-2" d="M143,100.08v3.18a.77.77,0,0,1-.78.78h-4.89v15.51a.86.86,0,0,1-.84.84h-3.75a.83.83,0,0,1-.81-.84V104H127a.88.88,0,0,1-.81-.87v-3.09a.8.8,0,0,1,.81-.78h15.18A.77.77,0,0,1,143,100.08Z"/><path class="cls-2" d="M162.74,109.83c0,5.91-3.93,10.68-10.77,10.68s-10.8-4.77-10.8-10.68,4-10.65,10.8-10.65S162.74,104,162.74,109.83Zm-5.49,0c0-3.81-2-5.88-5.28-5.88s-5.31,2.07-5.31,5.88,2,5.91,5.31,5.91S157.25,113.67,157.25,109.83Z"/><path class="cls-2" d="M168.92,111.93c-2.88-.93-5.58-2.67-5.58-6.48,0-3.57,2.37-6.27,7.23-6.27a30.14,30.14,0,0,1,3.78.36,1.27,1.27,0,0,1,1.17,1.56c-.09.48-.36,1.86-.45,2.34a1,1,0,0,1-1.29.81,29.25,29.25,0,0,0-3.09-.3c-1.65,0-2.1.42-2.1,1.17,0,1,.87,1.26,3.21,2,3.36,1.05,5.64,2.82,5.64,6.48s-2.4,6.9-7.23,6.9a20.52,20.52,0,0,1-5-.54,1.29,1.29,0,0,1-1.08-1.62l.57-2.25a1,1,0,0,1,1.29-.84,16.51,16.51,0,0,0,3.93.48c1.53,0,2.22-.6,2.22-1.59S171.53,112.77,168.92,111.93Z"/><path class="cls-2" d="M18.73,156.67v6.54h6.74a.8.8,0,0,1,.79.78v.78a.8.8,0,0,1-.79.78H18.73v7.5h9.39a.79.79,0,0,1,.77.81v.75a.77.77,0,0,1-.77.78h-11a.8.8,0,0,1-.81-.81V155.14a.8.8,0,0,1,.81-.81H28.21a.79.79,0,0,1,.77.78v.78a.79.79,0,0,1-.77.78Z"/><path class="cls-2" d="M47,155.14v19.44a.8.8,0,0,1-.8.81h-.52a1.94,1.94,0,0,1-1.38-.81L33.72,159.4v15.18a.8.8,0,0,1-.8.81H32a.81.81,0,0,1-.81-.81V155.14a.81.81,0,0,1,.81-.81h.34a2.14,2.14,0,0,1,1.41.81l10.73,15.45V155.14a.81.81,0,0,1,.81-.81h.88A.8.8,0,0,1,47,155.14Z"/><path class="cls-2" d="M68.73,173.17a15.52,15.52,0,0,0,5.28-.9c.63-.21,1-.42,1.29.24.16.36.3.72.39,1s.12.75-.72,1a18.82,18.82,0,0,1-6.24,1c-5.87,0-10.13-4.8-10.13-10.68s4.26-10.65,10.13-10.65a18.93,18.93,0,0,1,6.24,1c.84.27.84.57.72,1a9,9,0,0,1-.39,1c-.27.63-.66.45-1.29.24a14.81,14.81,0,0,0-5.28-.9c-4.52,0-7.65,3.48-7.65,8.28S64.21,173.17,68.73,173.17Z"/><path class="cls-2" d="M98,164.86a10.66,10.66,0,1,1-10.67-10.65A10.68,10.68,0,0,1,98,164.86Zm-2.49,0a8.17,8.17,0,1,0-8.18,8.34A8,8,0,0,0,95.55,164.86Z"/><path class="cls-2" d="M115.5,169.18c0,3.84-2.85,6.21-6.87,6.21h-7.4a.81.81,0,0,1-.81-.81V155.14a.81.81,0,0,1,.81-.81h7c4,0,6.87,1.59,6.87,5.43a4.34,4.34,0,0,1-3,4.5A4.8,4.8,0,0,1,115.5,169.18Zm-7.25-12.51h-5.34v6.54h5.34c3.29,0,4.37-1.74,4.37-3.45S111.54,156.67,108.25,156.67ZM113,169.18c0-1.71-1.08-3.6-4.39-3.6h-5.72v7.59l5.72,0C111.94,173.14,113,170.86,113,169.18Z"/><path class="cls-2" d="M131.71,174.58c.17.45,0,.81-.49.81h-.9a1.45,1.45,0,0,1-1.17-.81s-.36-.9-1.17-2.76a5.43,5.43,0,0,0-5.1-3.66h-2.49v6.42a.83.83,0,0,1-.84.81h-.84a.8.8,0,0,1-.8-.81V155.14a.8.8,0,0,1,.8-.81h6c5,0,7.62,3.15,7.62,7a6.39,6.39,0,0,1-4.72,6.48,8.65,8.65,0,0,1,2.7,3.66C131.16,173.35,131.71,174.58,131.71,174.58Zm-7-17.91h-4.36v9.15h4.36c3.68,0,5.21-2.19,5.21-4.53S128.43,156.67,124.75,156.67Z"/><path class="cls-2" d="M149.4,175.39h-1a1.23,1.23,0,0,1-1.08-.81s-.42-1.11-1.44-4.14h-8c-1.06,3-1.44,4.14-1.44,4.14a1.24,1.24,0,0,1-1.09.81h-1a.56.56,0,0,1-.54-.81l6.63-19.44a1.23,1.23,0,0,1,1.08-.81h.72a1.23,1.23,0,0,1,1.08.81l6.63,19.44A.56.56,0,0,1,149.4,175.39Zm-4.29-7.29c-.12-.33-.23-.66-.36-1-1.2-3.54-2.25-7.41-2.87-9.75-.64,2.34-1.68,6.21-2.89,9.75-.11.36-.24.69-.36,1Z"/><path class="cls-2" d="M168.12,155.14v19.44a.81.81,0,0,1-.81.81h-.51a1.92,1.92,0,0,1-1.38-.81L154.83,159.4v15.18a.8.8,0,0,1-.8.81h-.88a.81.81,0,0,1-.81-.81V155.14a.81.81,0,0,1,.81-.81h.33a2.12,2.12,0,0,1,1.41.81l10.74,15.45V155.14a.81.81,0,0,1,.81-.81h.87A.81.81,0,0,1,168.12,155.14Z"/><path class="cls-2" d="M183.36,173.86v.75a.77.77,0,0,1-.78.78h-11.4c-.45,0-.69-.48-.69-.81V174c0-.87.06-1.08.93-2.58.69-1.2,6.57-10.89,8.88-14.7h-8.55a.79.79,0,0,1-.78-.78v-.78a.79.79,0,0,1,.78-.78h10.32c1.08,0,1.26.72,1.26,1.11,0,.66.09.9-1,2.64-.87,1.41-6.81,11.16-9.12,15h9.36A.8.8,0,0,1,183.36,173.86Z"/><path class="cls-2" d="M200.79,175.39h-1a1.23,1.23,0,0,1-1.08-.81s-.42-1.11-1.44-4.14h-8c-1.05,3-1.44,4.14-1.44,4.14a1.23,1.23,0,0,1-1.08.81h-1a.56.56,0,0,1-.54-.81l6.63-19.44a1.23,1.23,0,0,1,1.08-.81h.72a1.23,1.23,0,0,1,1.08.81l6.63,19.44A.56.56,0,0,1,200.79,175.39Zm-4.29-7.29c-.12-.33-.24-.66-.36-1-1.2-3.54-2.25-7.41-2.88-9.75-.63,2.34-1.68,6.21-2.88,9.75-.12.36-.24.69-.36,1Z"/></g></g></svg>