<svg xmlns="http://www.w3.org/2000/svg" viewBox="0 0 221 221"><defs><style>.cls-1{fill:#401abd;}.cls-2{fill:#fff;}</style></defs><g id="Capa_2" data-name="Capa 2"><g id="Capa_1-2" data-name="Capa 1"><rect class="cls-1" width="221" height="221" rx="20"/><path class="cls-2" d="M35.87,44.58a.75.75,0,0,1-.75.81h-.85a.89.89,0,0,1-.89-.81L32.12,30.84l-6,13.74a1.54,1.54,0,0,1-1.26.81H24.2a1.52,1.52,0,0,1-1.26-.81l-6.12-14-1.29,14a.88.88,0,0,1-.87.81h-.87a.72.72,0,0,1-.72-.81l1.77-19.44a.91.91,0,0,1,.9-.81H16a1.39,1.39,0,0,1,1.17.81l7.32,16.77,7.31-16.77A1.5,1.5,0,0,1,33,24.33h.29a.93.93,0,0,1,.84.81Z"/><path class="cls-2" d="M54.34,45.39h-1a1.23,1.23,0,0,1-1.08-.81s-.42-1.11-1.44-4.14h-8l-1.43,4.14a1.24,1.24,0,0,1-1.08.81h-1a.56.56,0,0,1-.54-.81l6.63-19.44a1.2,1.2,0,0,1,1.08-.81h.71a1.23,1.23,0,0,1,1.08.81l6.63,19.44A.56.56,0,0,1,54.34,45.39ZM50.05,38.1c-.12-.33-.24-.66-.36-1-1.2-3.54-2.25-7.41-2.88-9.75-.63,2.34-1.68,6.21-2.88,9.75-.12.36-.23.69-.36,1Z"/><path class="cls-2" d="M74.12,25.14V44.58a.82.82,0,0,1-.82.81h-.51a1.92,1.92,0,0,1-1.38-.81L60.83,29.4V44.58a.81.81,0,0,1-.81.81h-.88a.81.81,0,0,1-.81-.81V25.14a.81.81,0,0,1,.81-.81h.33a2.1,2.1,0,0,1,1.41.81L71.62,40.59V25.14a.81.81,0,0,1,.81-.81h.87A.82.82,0,0,1,74.12,25.14Z"/><path class="cls-2" d="M92.08,25.11v.78a.79.79,0,0,1-.78.78H85.79V44.58a.82.82,0,0,1-.82.81h-.75a.8.8,0,0,1-.8-.81V26.67H77.89a.87.87,0,0,1-.77-.87v-.69a.79.79,0,0,1,.77-.78H91.3A.79.79,0,0,1,92.08,25.11Z"/><path class="cls-2" d="M97.54,26.67v6.54h6.75a.8.8,0,0,1,.79.78v.78a.8.8,0,0,1-.79.78H97.54v7.5h9.4a.79.79,0,0,1,.77.81v.75a.77.77,0,0,1-.77.78h-11a.81.81,0,0,1-.81-.81V25.14a.81.81,0,0,1,.81-.81H107a.79.79,0,0,1,.77.78v.78a.79.79,0,0,1-.77.78Z"/><path class="cls-2" d="M126.88,25.14V44.58a.81.81,0,0,1-.81.81h-.51a1.94,1.94,0,0,1-1.38-.81L113.6,29.4V44.58a.81.81,0,0,1-.81.81h-.87a.8.8,0,0,1-.81-.81V25.14a.8.8,0,0,1,.81-.81h.33a2.16,2.16,0,0,1,1.41.81l10.73,15.45V25.14a.81.81,0,0,1,.82-.81h.86A.81.81,0,0,1,126.88,25.14Z"/><path class="cls-2" d="M133.81,26.67v6.54h6.75a.79.79,0,0,1,.78.78v.78a.79.79,0,0,1-.78.78h-6.75v7.5h9.39a.8.8,0,0,1,.78.81v.75a.77.77,0,0,1-.78.78h-11a.81.81,0,0,1-.81-.81V25.14a.81.81,0,0,1,.81-.81h11.13a.79.79,0,0,1,.78.78v.78a.79.79,0,0,1-.78.78Z"/><path class="cls-2" d="M169.6,44.58a.74.74,0,0,1-.75.81H168a.91.91,0,0,1-.9-.81l-1.26-13.74-6,13.74a1.52,1.52,0,0,1-1.26.81h-.66a1.52,1.52,0,0,1-1.26-.81l-6.12-14-1.29,14a.88.88,0,0,1-.87.81h-.87a.72.72,0,0,1-.72-.81l1.77-19.44a.91.91,0,0,1,.9-.81h.3a1.39,1.39,0,0,1,1.17.81l7.32,16.77,7.32-16.77a1.46,1.46,0,0,1,1.11-.81h.3a.93.93,0,0,1,.84.81Z"/><path class="cls-2" d="M193.36,34.86a10.67,10.67,0,1,1-10.68-10.65A10.68,10.68,0,0,1,193.36,34.86Zm-2.49,0a8.18,8.18,0,1,0-16.35,0,8.18,8.18,0,1,0,16.35,0Z"/><path class="cls-2" d="M201.25,35c-2.88-.93-5.52-2.13-5.52-5.64,0-3.24,2.55-5.13,6.75-5.13a29.59,29.59,0,0,1,3.69.33c.72.12.93.42.78,1.2,0,.18-.09.33-.12.54-.15.69-.57.69-1.26.6a23.13,23.13,0,0,0-3-.3c-2.58,0-4.38.63-4.38,2.88,0,1.74,2.07,2.52,4.74,3.36,3.36,1.08,6,2.55,6,6.24,0,3.54-2.37,6.48-7.23,6.48a18.56,18.56,0,0,1-4.11-.45c-.84-.21-1.05-.48-.9-1.26a6.31,6.31,0,0,1,.18-.72c.18-.66.84-.45,1.5-.3a14,14,0,0,0,3.33.36c2.85,0,4.74-1.17,4.74-4C206.5,37,204.16,35.91,201.25,35Z"/><path class="cls-2" d="M30.84,94.55c.18.45,0,.84-.48.84H26.49a1.38,1.38,0,0,1-1.17-.84s-.42-.9-1.2-2.76S22.38,89,20.64,89H20.1v5.55a.84.84,0,0,1-.84.84H15.42a.83.83,0,0,1-.81-.84V75.11a.81.81,0,0,1,.81-.81H22.8c6,0,8.22,3.39,8.22,7.23a6.39,6.39,0,0,1-4,6.33,9.22,9.22,0,0,1,2.46,3.54C30.3,93.32,30.84,94.55,30.84,94.55ZM22.32,79.07,20.1,79v5.19h2.22c2.76,0,3.33-1.2,3.33-2.58S25.08,79.07,22.32,79.07Z"/><path class="cls-2" d="M39.18,79v3.24h5.76a.81.81,0,0,1,.81.81v3.15a.78.78,0,0,1-.81.78H39.18v3.63h8.49a.76.76,0,0,1,.78.78v3.15a.78.78,0,0,1-.78.81H34.59a.83.83,0,0,1-.81-.84V75.11a.81.81,0,0,1,.81-.81H47.67a.77.77,0,0,1,.78.78v3.18a.77.77,0,0,1-.78.78Z"/><path class="cls-2" d="M67.59,81.77c0,3.81-2.22,7.59-8.22,7.59H56.64v5.19a.83.83,0,0,1-.81.84H52a.83.83,0,0,1-.81-.84V75.11A.81.81,0,0,1,52,74.3h7.41C65.37,74.3,67.59,77.93,67.59,81.77Zm-5.4,0c0-1.41-.57-2.7-3.3-2.7l-2.25,0v5.55h2.25C61.62,84.59,62.19,83.15,62.19,81.77Z"/><path class="cls-2" d="M91.26,84.83c0,5.91-3.93,10.68-10.77,10.68s-10.8-4.77-10.8-10.68,4-10.65,10.8-10.65S91.26,79,91.26,84.83Zm-5.49,0c0-3.81-2-5.88-5.28-5.88S75.18,81,75.18,84.83s2,5.91,5.31,5.91S85.77,88.67,85.77,84.83Z"/><path class="cls-2" d="M110.19,94.55c.18.45,0,.84-.48.84h-3.87a1.38,1.38,0,0,1-1.17-.84s-.42-.9-1.2-2.76S101.73,89,100,89h-.54v5.55a.84.84,0,0,1-.84.84H94.77a.83.83,0,0,1-.81-.84V75.11a.81.81,0,0,1,.81-.81h7.38c6,0,8.22,3.39,8.22,7.23a6.39,6.39,0,0,1-4,6.33,9.22,9.22,0,0,1,2.46,3.54C109.65,93.32,110.19,94.55,110.19,94.55Zm-8.52-15.48-2.22,0v5.19h2.22c2.76,0,3.33-1.2,3.33-2.58S104.43,79.07,101.67,79.07Z"/><path class="cls-2" d="M128,75.08v3.18a.77.77,0,0,1-.78.78h-4.89V94.55a.86.86,0,0,1-.84.84h-3.75a.83.83,0,0,1-.81-.84V79h-4.89a.88.88,0,0,1-.81-.87V75.08a.8.8,0,0,1,.81-.78h15.18A.77.77,0,0,1,128,75.08Z"/><path class="cls-2" d="M146.43,95.39h-4a1.3,1.3,0,0,1-1.11-.84l-1-2.91H133.5l-1,2.91a1.26,1.26,0,0,1-1.08.84h-4a.56.56,0,0,1-.51-.84l6.6-19.44a1.27,1.27,0,0,1,1.11-.81h4.65a1.23,1.23,0,0,1,1.11.81L147,94.55A.58.58,0,0,1,146.43,95.39ZM135,86.87h3.78c-.66-2.13-1.32-4.44-1.89-6.45C136.35,82.4,135.69,84.71,135,86.87Z"/><path class="cls-2" d="M168.6,84.8c0,5.13-2.94,10.59-11.25,10.59H150.6a.83.83,0,0,1-.81-.84V75.11a.81.81,0,0,1,.81-.81h6.75C165.66,74.3,168.6,79.67,168.6,84.8Zm-5.49,0c0-3-1.05-5.73-5.76-5.73l-2.16,0V90.62h2.16C162.06,90.62,163.11,87.8,163.11,84.8Z"/><path class="cls-2" d="M192.27,84.83c0,5.91-3.93,10.68-10.77,10.68s-10.8-4.77-10.8-10.68,4-10.65,10.8-10.65S192.27,79,192.27,84.83Zm-5.49,0c0-3.81-2-5.88-5.28-5.88s-5.31,2.07-5.31,5.88,2,5.91,5.31,5.91S186.78,88.67,186.78,84.83Z"/><path class="cls-2" d="M199.5,86.93c-2.88-.93-5.58-2.67-5.58-6.48,0-3.57,2.37-6.27,7.23-6.27a30.14,30.14,0,0,1,3.78.36,1.27,1.27,0,0,1,1.17,1.56c-.09.48-.36,1.86-.45,2.34a1,1,0,0,1-1.29.81,29.25,29.25,0,0,0-3.09-.3c-1.65,0-2.1.42-2.1,1.17,0,1,.87,1.26,3.21,2C205.74,83.18,208,85,208,88.61s-2.4,6.9-7.23,6.9a20.52,20.52,0,0,1-4.95-.54,1.29,1.29,0,0,1-1.08-1.62l.57-2.25a1,1,0,0,1,1.29-.84,16.51,16.51,0,0,0,3.93.48c1.53,0,2.22-.6,2.22-1.59S202.11,87.77,199.5,86.93Z"/><path class="cls-2" d="M87,145.39H86a1.23,1.23,0,0,1-1.08-.81s-.42-1.11-1.44-4.14h-8c-1,3-1.44,4.14-1.44,4.14a1.23,1.23,0,0,1-1.08.81h-1a.56.56,0,0,1-.54-.81L78,125.14a1.23,1.23,0,0,1,1.08-.81h.72a1.23,1.23,0,0,1,1.08.81l6.63,19.44A.56.56,0,0,1,87,145.39Zm-4.29-7.29c-.12-.33-.24-.66-.36-1-1.2-3.54-2.25-7.41-2.88-9.75-.63,2.34-1.68,6.21-2.88,9.75-.12.36-.24.69-.36,1Z"/><path class="cls-2" d="M115.62,125.11v.78a.79.79,0,0,1-.78.78h-5.52v17.91a.81.81,0,0,1-.81.81h-.75a.81.81,0,0,1-.81-.81V126.67h-5.52a.88.88,0,0,1-.78-.87v-.69a.79.79,0,0,1,.78-.78h13.41A.79.79,0,0,1,115.62,125.11Z"/><path class="cls-2" d="M118.62,125.14a.81.81,0,0,1,.81-.81h.84a.83.83,0,0,1,.84.81v12.69c0,4.08,2.16,5.34,5.22,5.34s5.19-1.26,5.19-5.34V125.14a.83.83,0,0,1,.84-.81h.84a.81.81,0,0,1,.81.81v12.21c0,4.83-2.31,8.19-7.68,8.19s-7.71-3.36-7.71-8.19Z"/><path class="cls-2" d="M143,135c-2.88-.93-5.52-2.13-5.52-5.64,0-3.24,2.55-5.13,6.75-5.13a29.59,29.59,0,0,1,3.69.33c.72.12.93.42.78,1.2,0,.18-.09.33-.12.54-.15.69-.57.69-1.26.6a23.13,23.13,0,0,0-3-.3c-2.58,0-4.38.63-4.38,2.88,0,1.74,2.07,2.52,4.74,3.36,3.36,1.08,6,2.55,6,6.24,0,3.54-2.37,6.48-7.23,6.48a18.56,18.56,0,0,1-4.11-.45c-.84-.21-1-.48-.9-1.26a6.31,6.31,0,0,1,.18-.72c.18-.66.84-.45,1.5-.3a14,14,0,0,0,3.33.36c2.85,0,4.74-1.17,4.74-4C148.2,137,145.86,135.91,143,135Z"/><path class="cls-2" d="M54.79,184.83c0,5.13-3,10.56-10.64,10.56H39.32a.81.81,0,0,1-.81-.81V175.14a.81.81,0,0,1,.81-.81h4.83C51.79,174.33,54.79,179.7,54.79,184.83Zm-2.49,0c0-4-1.85-8.16-8.15-8.16H40.91v16.38h3.24C50.45,193.05,52.3,188.79,52.3,184.83Z"/><path class="cls-2" d="M60.68,176.67v6.54h6.74a.8.8,0,0,1,.79.78v.78a.8.8,0,0,1-.79.78H60.68v7.5h9.38a.8.8,0,0,1,.78.81v.75a.77.77,0,0,1-.78.78H59a.82.82,0,0,1-.82-.81V175.14a.82.82,0,0,1,.82-.81H70.15a.79.79,0,0,1,.78.78v.78a.79.79,0,0,1-.78.78Z"/><path class="cls-2" d="M74.27,175.14a.8.8,0,0,1,.81-.81h.84a.82.82,0,0,1,.83.81v12.69c0,4.08,2.17,5.34,5.22,5.34s5.19-1.26,5.19-5.34V175.14a.83.83,0,0,1,.84-.81h.84a.81.81,0,0,1,.81.81v12.21c0,4.83-2.31,8.19-7.68,8.19s-7.7-3.36-7.7-8.19Z"/><path class="cls-2" d="M110,184.83c0,5.13-3,10.56-10.65,10.56H94.52a.8.8,0,0,1-.81-.81V175.14a.8.8,0,0,1,.81-.81h4.82C107,174.33,110,179.7,110,184.83Zm-2.49,0c0-4-1.86-8.16-8.16-8.16H96.11v16.38h3.23C105.64,193.05,107.5,188.79,107.5,184.83Z"/><path class="cls-2" d="M134.14,184.86a10.67,10.67,0,1,1-10.68-10.65A10.68,10.68,0,0,1,134.14,184.86Zm-2.49,0a8.18,8.18,0,1,0-8.19,8.34A8,8,0,0,0,131.65,184.86Z"/><path class="cls-2" d="M151.36,194.58c.18.45,0,.81-.48.81H150a1.43,1.43,0,0,1-1.17-.81s-.36-.9-1.17-2.76a5.44,5.44,0,0,0-5.1-3.66h-2.49v6.42a.83.83,0,0,1-.84.81h-.84a.81.81,0,0,1-.81-.81V175.14a.81.81,0,0,1,.81-.81h6c5,0,7.62,3.15,7.62,7a6.4,6.4,0,0,1-4.71,6.48,8.73,8.73,0,0,1,2.7,3.66C150.82,193.35,151.36,194.58,151.36,194.58Zm-7-17.91h-4.35v9.15h4.35c3.69,0,5.22-2.19,5.22-4.53S148.09,176.67,144.4,176.67Z"/><path class="cls-2" d="M157.93,176.67v6.54h6.75a.79.79,0,0,1,.78.78v.78a.79.79,0,0,1-.78.78h-6.75v7.5h9.39a.8.8,0,0,1,.78.81v.75a.77.77,0,0,1-.78.78h-11a.81.81,0,0,1-.81-.81V175.14a.81.81,0,0,1,.81-.81h11.13a.79.79,0,0,1,.78.78v.78a.79.79,0,0,1-.78.78Z"/><path class="cls-2" d="M176.41,185c-2.88-.93-5.52-2.13-5.52-5.64,0-3.24,2.55-5.13,6.75-5.13a29.59,29.59,0,0,1,3.69.33c.72.12.93.42.78,1.2,0,.18-.09.33-.12.54-.15.69-.57.69-1.26.6a23.13,23.13,0,0,0-3-.3c-2.58,0-4.38.63-4.38,2.88,0,1.74,2.07,2.52,4.74,3.36,3.36,1.08,6,2.55,6,6.24,0,3.54-2.37,6.48-7.23,6.48a18.56,18.56,0,0,1-4.11-.45c-.84-.21-1.05-.48-.9-1.26a6.31,6.31,0,0,1,.18-.72c.18-.66.84-.45,1.5-.3a14,14,0,0,0,3.33.36c2.85,0,4.74-1.17,4.74-4C181.66,187,179.32,185.91,176.41,185Z"/></g></g></svg>