<svg xmlns="http://www.w3.org/2000/svg" viewBox="0 0 221 221"><defs><style>.cls-1{fill:#401abd;}.cls-2{fill:#fff;}</style></defs><g id="Capa_2" data-name="Capa 2"><g id="Capa_1-2" data-name="Capa 1"><rect class="cls-1" width="221" height="221" rx="20"/><path class="cls-2" d="M82,70.07v.66a.76.76,0,0,1-.78.78H70.4a.77.77,0,0,1-.78-.78v-.66a.77.77,0,0,1,.78-.78h4.23V53l-3.9,1.08c-.45.12-1,.12-1.14-.3l-.11-.24a.77.77,0,0,1,.44-1l4.47-1.8a3.16,3.16,0,0,1,1.29-.27h.54a.81.81,0,0,1,.81.81v18h4.14A.76.76,0,0,1,82,70.07Z"/><path class="cls-2" d="M100.37,61c0,6.15-2.43,10.68-8.1,10.68S84.15,67.13,84.15,61s2.42-10.65,8.12-10.65S100.37,54.83,100.37,61Zm-2.52,0c0-5.19-1.29-8.37-5.58-8.37S86.66,55.79,86.66,61s1.29,8.37,5.61,8.37S97.85,66.2,97.85,61Z"/><path class="cls-2" d="M120.44,61c0,6.15-2.43,10.68-8.1,10.68s-8.12-4.53-8.12-10.68,2.43-10.65,8.12-10.65S120.44,54.83,120.44,61Zm-2.52,0c0-5.19-1.29-8.37-5.58-8.37s-5.61,3.18-5.61,8.37,1.29,8.37,5.61,8.37S117.92,66.2,117.92,61Z"/><path class="cls-2" d="M136.64,56c0,3.57-2,6.42-6.18,6.42s-6.15-2.85-6.15-6.42,2-6.39,6.15-6.39S136.64,52.46,136.64,56Zm-2.46,0c0-2.4-.87-4-3.72-4s-3.72,1.65-3.72,4,.87,4.08,3.72,4.08S134.18,58.43,134.18,56Zm9.72-6.66-9.84,23.31a1.34,1.34,0,0,1-1.14.81h-.45c-.45,0-.66-.36-.48-.81l9.84-23.31A1.46,1.46,0,0,1,143,48.5h.45C143.9,48.5,144.11,48.89,143.9,49.34Zm7.71,15.93c0,3.54-2,6.39-6.18,6.39s-6.15-2.85-6.15-6.39,2-6.42,6.15-6.42S151.61,61.7,151.61,65.27Zm-2.46,0c0-2.43-.87-4.08-3.72-4.08s-3.69,1.65-3.69,4.08.87,4,3.69,4S149.15,67.67,149.15,65.27Z"/><path class="cls-2" d="M24.22,107.79v6.54H31a.79.79,0,0,1,.78.78v.78a.79.79,0,0,1-.78.78H24.22v7.5h9.39a.8.8,0,0,1,.78.81v.75a.77.77,0,0,1-.78.78h-11a.81.81,0,0,1-.81-.81V106.26a.81.81,0,0,1,.81-.81H33.7a.79.79,0,0,1,.78.78V107a.79.79,0,0,1-.78.78Z"/><path class="cls-2" d="M54.58,106.26V125.7a.81.81,0,0,1-.81.81h-.51a1.92,1.92,0,0,1-1.38-.81L41.29,110.52V125.7a.81.81,0,0,1-.81.81h-.87a.81.81,0,0,1-.81-.81V106.26a.81.81,0,0,1,.81-.81h.33a2.14,2.14,0,0,1,1.41.81l10.74,15.45V106.26a.81.81,0,0,1,.81-.81h.87A.81.81,0,0,1,54.58,106.26Z"/><path class="cls-2" d="M72.79,106.23V107a.79.79,0,0,1-.78.78H62.53v6.54h6.39a.79.79,0,0,1,.78.78v.78a.79.79,0,0,1-.78.78H62.53v9a.81.81,0,0,1-.81.81h-.84a.81.81,0,0,1-.81-.81V106.26a.81.81,0,0,1,.81-.81H72A.79.79,0,0,1,72.79,106.23Z"/><path class="cls-2" d="M96.31,116a10.67,10.67,0,1,1-10.68-10.65A10.68,10.68,0,0,1,96.31,116Zm-2.49,0a8.18,8.18,0,1,0-8.19,8.34A8,8,0,0,0,93.82,116Z"/><path class="cls-2" d="M110.26,124.29a15.57,15.57,0,0,0,5.28-.9c.63-.21,1-.42,1.29.24.15.36.3.72.39,1s.12.75-.72,1a18.82,18.82,0,0,1-6.24,1c-5.88,0-10.14-4.8-10.14-10.68s4.26-10.65,10.14-10.65a18.93,18.93,0,0,1,6.24,1c.84.27.84.57.72,1s-.24.66-.39,1c-.27.63-.66.45-1.29.24a14.86,14.86,0,0,0-5.28-.9c-4.53,0-7.65,3.48-7.65,8.28S105.73,124.29,110.26,124.29Z"/><path class="cls-2" d="M136.75,126.51h-1a1.23,1.23,0,0,1-1.08-.81s-.42-1.11-1.44-4.14h-8c-1,3-1.44,4.14-1.44,4.14a1.23,1.23,0,0,1-1.08.81h-1a.56.56,0,0,1-.54-.81l6.63-19.44a1.23,1.23,0,0,1,1.08-.81h.72a1.23,1.23,0,0,1,1.08.81l6.63,19.44A.56.56,0,0,1,136.75,126.51Zm-4.29-7.29c-.12-.33-.24-.66-.36-1-1.2-3.54-2.25-7.41-2.88-9.75-.63,2.34-1.68,6.21-2.88,9.75-.12.36-.24.69-.36,1Z"/><path class="cls-2" d="M158.08,116c0,5.13-3,10.56-10.65,10.56H142.6a.81.81,0,0,1-.81-.81V106.26a.81.81,0,0,1,.81-.81h4.83C155.08,105.45,158.08,110.82,158.08,116Zm-2.49,0c0-4-1.86-8.16-8.16-8.16h-3.24v16.38h3.24C153.73,124.17,155.59,119.91,155.59,116Z"/><path class="cls-2" d="M183.25,116a10.67,10.67,0,1,1-10.68-10.65A10.68,10.68,0,0,1,183.25,116Zm-2.49,0a8.18,8.18,0,1,0-8.19,8.34A8,8,0,0,0,180.76,116Z"/><path class="cls-2" d="M192.16,116.1c-2.88-.93-5.52-2.13-5.52-5.64,0-3.24,2.55-5.13,6.75-5.13a29.59,29.59,0,0,1,3.69.33c.72.12.93.42.78,1.2,0,.18-.09.33-.12.54-.15.69-.57.69-1.26.6a23.13,23.13,0,0,0-3-.3c-2.58,0-4.38.63-4.38,2.88,0,1.74,2.07,2.52,4.74,3.36,3.36,1.08,6,2.55,6,6.24,0,3.54-2.37,6.48-7.23,6.48a18.56,18.56,0,0,1-4.11-.45c-.84-.21-1.05-.48-.9-1.26a6.31,6.31,0,0,1,.18-.72c.18-.66.84-.45,1.5-.3a14,14,0,0,0,3.33.36c2.85,0,4.74-1.17,4.74-4C197.41,118.14,195.07,117,192.16,116.1Z"/><path class="cls-2" d="M42.93,162.79v6.54h6.74a.8.8,0,0,1,.79.78v.78a.8.8,0,0,1-.79.78H42.93v7.5h9.38a.8.8,0,0,1,.78.81v.75a.77.77,0,0,1-.78.78h-11a.81.81,0,0,1-.81-.81V161.26a.81.81,0,0,1,.81-.81H52.4a.79.79,0,0,1,.78.78V162a.79.79,0,0,1-.78.78Z"/><path class="cls-2" d="M73.28,161.26V180.7a.81.81,0,0,1-.81.81H72a1.92,1.92,0,0,1-1.38-.81L60,165.52V180.7a.81.81,0,0,1-.81.81h-.88a.81.81,0,0,1-.81-.81V161.26a.81.81,0,0,1,.81-.81h.34a2.14,2.14,0,0,1,1.41.81l10.73,15.45V161.26a.81.81,0,0,1,.81-.81h.87A.81.81,0,0,1,73.28,161.26Z"/><path class="cls-2" d="M105.68,167.89c0,3.81-2.22,7.59-8.22,7.59H94.73v5.19a.83.83,0,0,1-.81.84H90.05a.83.83,0,0,1-.81-.84V161.23a.81.81,0,0,1,.81-.81h7.41C103.46,160.42,105.68,164.05,105.68,167.89Zm-5.4,0c0-1.41-.57-2.7-3.3-2.7l-2.25,0v5.55H97C99.71,170.71,100.28,169.27,100.28,167.89Z"/><path class="cls-2" d="M123.47,161.23,118,173.44a1.56,1.56,0,0,1-1,.78v6.45a.83.83,0,0,1-.81.84H112.4a.83.83,0,0,1-.81-.84v-6.45a1.56,1.56,0,0,1-1-.78l-5.52-12.21c-.21-.45,0-.81.45-.81h4.08a1.43,1.43,0,0,1,1.2.81s.51,1.11,1.14,2.52,1.53,3.57,2.31,5.52c.78-2,1.71-4.17,2.31-5.52s1.14-2.52,1.14-2.52a1.47,1.47,0,0,1,1.2-.81H123C123.47,160.42,123.68,160.78,123.47,161.23Z"/><path class="cls-2" d="M149.24,181.51H145.4a.94.94,0,0,1-.9-.84l-.87-10.11L139,180.67a1.65,1.65,0,0,1-1.29.84h-2a1.7,1.7,0,0,1-1.32-.84l-4.65-10.11-.87,10.11a.91.91,0,0,1-.87.84h-3.87a.77.77,0,0,1-.75-.84l1.8-19.44a.91.91,0,0,1,.9-.81h4.41a1.47,1.47,0,0,1,1.2.81l5,11.28,5-11.28a1.47,1.47,0,0,1,1.2-.81h4.44a.88.88,0,0,1,.87.81l1.8,19.44A.77.77,0,0,1,149.24,181.51Z"/><path class="cls-2" d="M157.1,165.16v3.24h5.76a.81.81,0,0,1,.81.81v3.15a.78.78,0,0,1-.81.78H157.1v3.63h8.49a.76.76,0,0,1,.78.78v3.15a.78.78,0,0,1-.78.81H152.51a.83.83,0,0,1-.81-.84V161.23a.81.81,0,0,1,.81-.81h13.08a.77.77,0,0,1,.78.78v3.18a.77.77,0,0,1-.78.78Z"/><path class="cls-2" d="M173,173.05c-2.88-.93-5.58-2.67-5.58-6.48,0-3.57,2.37-6.27,7.23-6.27a30.14,30.14,0,0,1,3.78.36,1.27,1.27,0,0,1,1.17,1.56c-.09.48-.36,1.86-.45,2.34a1,1,0,0,1-1.29.81,29.25,29.25,0,0,0-3.09-.3c-1.65,0-2.1.42-2.1,1.17,0,1,.87,1.26,3.21,2,3.36,1.05,5.64,2.82,5.64,6.48s-2.4,6.9-7.23,6.9a20.52,20.52,0,0,1-4.95-.54,1.29,1.29,0,0,1-1.08-1.62l.57-2.25a1,1,0,0,1,1.29-.84,16.51,16.51,0,0,0,3.93.48c1.53,0,2.22-.6,2.22-1.59S175.61,173.89,173,173.05Z"/></g></g></svg>