<svg xmlns="http://www.w3.org/2000/svg" viewBox="0 0 221 221"><defs><style>.cls-1{fill:#401abd;}.cls-2{fill:#fff;}</style></defs><g id="Capa_2" data-name="Capa 2"><g id="Capa_1-2" data-name="Capa 1"><rect class="cls-1" width="221" height="221" rx="20"/><path class="cls-2" d="M64.81,84.6a7.21,7.21,0,0,1-7.62,7.47H52.84v5.22a.81.81,0,0,1-.81.81h-.87a.81.81,0,0,1-.81-.81V77.85a.81.81,0,0,1,.81-.81h6A7.3,7.3,0,0,1,64.81,84.6Zm-2.4,0a5,5,0,0,0-5.22-5.22H52.84V89.73h4.35A5,5,0,0,0,62.41,84.6Z"/><path class="cls-2" d="M83.07,97.29c.18.45,0,.81-.48.81h-.9a1.43,1.43,0,0,1-1.17-.81s-.35-.9-1.17-2.76a5.44,5.44,0,0,0-5.1-3.66H71.77v6.42a.83.83,0,0,1-.84.81h-.84a.81.81,0,0,1-.81-.81V77.85a.81.81,0,0,1,.81-.81h6c5,0,7.61,3.15,7.61,7A6.38,6.38,0,0,1,79,90.48a8.73,8.73,0,0,1,2.7,3.66C82.53,96.06,83.07,97.29,83.07,97.29ZM76.12,79.38H71.77v9.15h4.35c3.68,0,5.21-2.19,5.21-4.53S79.8,79.38,76.12,79.38Z"/><path class="cls-2" d="M90.67,79.38v6.54h6.74a.79.79,0,0,1,.78.78v.78a.79.79,0,0,1-.78.78H90.67v7.5h9.38a.8.8,0,0,1,.78.81v.75a.77.77,0,0,1-.78.78H89a.8.8,0,0,1-.81-.81V77.85A.8.8,0,0,1,89,77h11.12a.79.79,0,0,1,.78.78v.78a.79.79,0,0,1-.78.78Z"/><path class="cls-2" d="M113.94,95.88a15.57,15.57,0,0,0,5.28-.9c.63-.21,1-.42,1.29.24.15.36.3.72.39,1,.12.42.12.75-.72,1a18.82,18.82,0,0,1-6.24,1c-5.88,0-10.14-4.8-10.14-10.68s4.26-10.65,10.14-10.65a18.93,18.93,0,0,1,6.24,1c.84.27.84.57.72,1s-.24.66-.39,1c-.27.63-.66.45-1.29.24a14.86,14.86,0,0,0-5.28-.9c-4.53,0-7.65,3.48-7.65,8.28S109.41,95.88,113.94,95.88Z"/><path class="cls-2" d="M127.89,77.85V97.29a.83.83,0,0,1-.84.81h-.84a.81.81,0,0,1-.81-.81V77.85a.81.81,0,0,1,.81-.81h.84A.83.83,0,0,1,127.89,77.85Z"/><path class="cls-2" d="M153.66,87.57A10.67,10.67,0,1,1,143,76.92,10.68,10.68,0,0,1,153.66,87.57Zm-2.49,0A8.18,8.18,0,1,0,143,95.91,8,8,0,0,0,151.17,87.57Z"/><path class="cls-2" d="M162.57,87.69c-2.88-.93-5.51-2.13-5.51-5.64,0-3.24,2.54-5.13,6.74-5.13a29.59,29.59,0,0,1,3.69.33c.72.12.93.42.78,1.2,0,.18-.09.33-.12.54-.15.69-.57.69-1.26.6a23.13,23.13,0,0,0-3-.3c-2.58,0-4.38.63-4.38,2.88,0,1.74,2.07,2.52,4.74,3.36,3.36,1.08,6,2.55,6,6.24s-2.37,6.48-7.23,6.48a18.4,18.4,0,0,1-4.1-.45c-.85-.21-1.06-.48-.9-1.26a4.69,4.69,0,0,1,.17-.72c.19-.66.84-.45,1.5-.3a14,14,0,0,0,3.33.36c2.85,0,4.74-1.17,4.74-4C167.82,89.73,165.48,88.62,162.57,87.69Z"/><path class="cls-2" d="M23.63,135.5v2.76a.67.67,0,0,1-.68.67H18.71v13.44a.74.74,0,0,1-.72.73H14.74a.73.73,0,0,1-.71-.73V138.93H9.8a.77.77,0,0,1-.71-.75V135.5a.71.71,0,0,1,.71-.68H23A.68.68,0,0,1,23.63,135.5Z"/><path class="cls-2" d="M38.79,152.37c.15.39,0,.73-.42.73H35a1.21,1.21,0,0,1-1-.73s-.36-.78-1-2.39-1.51-2.42-3-2.42h-.47v4.81a.73.73,0,0,1-.73.73H25.42a.72.72,0,0,1-.7-.73V135.53a.7.7,0,0,1,.7-.71h6.4c5.22,0,7.12,2.94,7.12,6.27a5.52,5.52,0,0,1-3.46,5.49,7.92,7.92,0,0,1,2.14,3.06C38.32,151.31,38.79,152.37,38.79,152.37ZM31.4,139l-1.92,0v4.5H31.4c2.39,0,2.89-1,2.89-2.24S33.79,139,31.4,139Z"/><path class="cls-2" d="M56.52,153.1H53.06a1.12,1.12,0,0,1-1-.73l-.86-2.52H45.31l-.88,2.52a1.1,1.1,0,0,1-.94.73H40a.49.49,0,0,1-.44-.73l5.72-16.84a1.1,1.1,0,0,1,1-.71h4a1.08,1.08,0,0,1,1,.71L57,152.37A.51.51,0,0,1,56.52,153.1Zm-9.88-7.38h3.27c-.57-1.85-1.14-3.85-1.63-5.59C47.78,141.84,47.21,143.85,46.64,145.72Z"/><path class="cls-2" d="M75.06,135.53v16.84a.75.75,0,0,1-.73.73H70.72a1.51,1.51,0,0,1-1.46-.78l-6-9.1v9.15a.72.72,0,0,1-.71.73H59.17a.72.72,0,0,1-.7-.73V135.53a.7.7,0,0,1,.7-.71h3.1a1.84,1.84,0,0,1,1.56.94l6.47,9.72v-9.95a.7.7,0,0,1,.7-.71h3.33A.73.73,0,0,1,75.06,135.53Z"/><path class="cls-2" d="M81.3,145.77c-2.5-.81-4.84-2.31-4.84-5.62,0-3.09,2.05-5.43,6.27-5.43A27.34,27.34,0,0,1,86,135a1.11,1.11,0,0,1,1,1.35l-.39,2a.87.87,0,0,1-1.12.7,25.28,25.28,0,0,0-2.68-.26c-1.43,0-1.82.37-1.82,1,0,.86.75,1.09,2.78,1.74,2.92.91,4.89,2.44,4.89,5.62s-2.08,6-6.26,6a18,18,0,0,1-4.3-.47,1.12,1.12,0,0,1-.93-1.41c.1-.41.39-1.53.49-2a.9.9,0,0,1,1.12-.72,14.49,14.49,0,0,0,3.41.41c1.32,0,1.92-.52,1.92-1.38S83.56,146.5,81.3,145.77Z"/><path class="cls-2" d="M104.33,141.3c0,3.3-1.92,6.58-7.12,6.58H94.84v4.49a.72.72,0,0,1-.7.73H90.79a.73.73,0,0,1-.71-.73V135.53a.71.71,0,0,1,.71-.71h6.42C102.41,134.82,104.33,138,104.33,141.3Zm-4.68,0c0-1.22-.49-2.34-2.86-2.34l-2,0v4.81h2C99.16,143.74,99.65,142.49,99.65,141.3Z"/><path class="cls-2" d="M120.06,153.1H116.6a1.12,1.12,0,0,1-1-.73l-.86-2.52h-5.92l-.89,2.52a1.08,1.08,0,0,1-.93.73h-3.49a.49.49,0,0,1-.44-.73l5.72-16.84a1.1,1.1,0,0,1,1-.71h4a1.07,1.07,0,0,1,1,.71l5.75,16.84A.51.51,0,0,1,120.06,153.1Zm-9.88-7.38h3.28c-.57-1.85-1.15-3.85-1.64-5.59C111.33,141.84,110.75,143.85,110.18,145.72Z"/><path class="cls-2" d="M136.1,152.37c.16.39,0,.73-.41.73h-3.36a1.21,1.21,0,0,1-1-.73s-.36-.78-1-2.39-1.51-2.42-3-2.42h-.46v4.81a.73.73,0,0,1-.73.73h-3.33a.72.72,0,0,1-.7-.73V135.53a.7.7,0,0,1,.7-.71h6.4c5.22,0,7.12,2.94,7.12,6.27a5.54,5.54,0,0,1-3.46,5.49,7.8,7.8,0,0,1,2.13,3.06C135.64,151.31,136.1,152.37,136.1,152.37ZM128.72,139l-1.92,0v4.5h1.92c2.39,0,2.89-1,2.89-2.24S131.11,139,128.72,139Z"/><path class="cls-2" d="M142.4,138.93v2.81h5a.7.7,0,0,1,.7.7v2.73a.68.68,0,0,1-.7.68h-5V149h7.35a.66.66,0,0,1,.68.68v2.73a.68.68,0,0,1-.68.7H138.42a.72.72,0,0,1-.7-.73V135.53a.7.7,0,0,1,.7-.71h11.33a.68.68,0,0,1,.68.68v2.76a.67.67,0,0,1-.68.67Z"/><path class="cls-2" d="M168.42,135.53v16.84a.75.75,0,0,1-.73.73h-3.61a1.52,1.52,0,0,1-1.46-.78l-6-9.1v9.15a.72.72,0,0,1-.7.73h-3.35a.73.73,0,0,1-.71-.73V135.53a.71.71,0,0,1,.71-.71h3.09a1.81,1.81,0,0,1,1.56.94l6.47,9.72v-9.95a.71.71,0,0,1,.71-.71h3.32A.73.73,0,0,1,168.42,135.53Z"/><path class="cls-2" d="M184,135.5v2.76a.67.67,0,0,1-.68.67h-4.24v13.44a.75.75,0,0,1-.73.73H175.1a.72.72,0,0,1-.7-.73V138.93h-4.24a.76.76,0,0,1-.7-.75V135.5a.7.7,0,0,1,.7-.68h13.16A.68.68,0,0,1,184,135.5Z"/><path class="cls-2" d="M189.77,138.93v2.81h5a.7.7,0,0,1,.7.7v2.73a.68.68,0,0,1-.7.68h-5V149h7.36a.65.65,0,0,1,.67.68v2.73a.67.67,0,0,1-.67.7H185.79a.72.72,0,0,1-.7-.73V135.53a.7.7,0,0,1,.7-.71h11.34a.67.67,0,0,1,.67.68v2.76a.66.66,0,0,1-.67.67Z"/><path class="cls-2" d="M203.52,145.77c-2.49-.81-4.83-2.31-4.83-5.62,0-3.09,2.05-5.43,6.26-5.43a27.3,27.3,0,0,1,3.28.31,1.11,1.11,0,0,1,1,1.35l-.39,2c-.13.6-.54.78-1.12.7a25.38,25.38,0,0,0-2.67-.26c-1.43,0-1.82.37-1.82,1,0,.86.75,1.09,2.78,1.74,2.91.91,4.89,2.44,4.89,5.62s-2.08,6-6.27,6a17.92,17.92,0,0,1-4.29-.47,1.13,1.13,0,0,1-.94-1.41c.11-.41.39-1.53.5-2a.89.89,0,0,1,1.12-.72,14.4,14.4,0,0,0,3.4.41c1.33,0,1.93-.52,1.93-1.38S205.78,146.5,203.52,145.77Z"/></g></g></svg>