<svg xmlns="http://www.w3.org/2000/svg" viewBox="0 0 221 221"><defs><style>.cls-1{fill:#401abd;}.cls-2{fill:#fff;}</style></defs><g id="Capa_2" data-name="Capa 2"><g id="Capa_1-2" data-name="Capa 1"><rect class="cls-1" width="221" height="221" rx="20"/><path class="cls-2" d="M26.5,68.12H23.44a1,1,0,0,1-.85-.65l-.76-2.23H16.59l-.78,2.23a1,1,0,0,1-.83.65H11.9a.43.43,0,0,1-.39-.65l5.06-14.9a1,1,0,0,1,.85-.62H21a.94.94,0,0,1,.85.62l5.09,14.9A.45.45,0,0,1,26.5,68.12Zm-8.74-6.53h2.9c-.51-1.63-1-3.41-1.45-5C18.77,58.16,18.27,59.93,17.76,61.59Z"/><path class="cls-2" d="M34.78,64.55a11.13,11.13,0,0,0,4-.71c.48-.14.73-.14.92.28L40.44,66a1,1,0,0,1-.69,1.31,15.14,15.14,0,0,1-5.15.87c-5,0-7.77-3.43-7.77-8.19s2.78-8.16,7.77-8.16a14.4,14.4,0,0,1,5.06.78A1,1,0,0,1,40.39,54c-.13.37-.52,1.54-.64,1.91s-.41.46-.92.32a12.86,12.86,0,0,0-4-.66C32.3,55.52,31,57.1,31,60S32.3,64.55,34.78,64.55Z"/><path class="cls-2" d="M54.17,52.55V55a.6.6,0,0,1-.6.6H49.82V67.47a.65.65,0,0,1-.64.65H46.31a.64.64,0,0,1-.62-.65V55.59H41.94a.67.67,0,0,1-.62-.67V52.55a.61.61,0,0,1,.62-.6H53.57A.6.6,0,0,1,54.17,52.55Z"/><path class="cls-2" d="M55.14,52.57a.62.62,0,0,1,.62-.62h3a.62.62,0,0,1,.62.62v9.18c0,1.91,1,2.8,2.89,2.8s2.9-.89,2.9-2.8V52.57a.62.62,0,0,1,.62-.62h2.95a.64.64,0,0,1,.64.62v9.18c0,4.21-2.51,6.46-7.11,6.46s-7.1-2.25-7.1-6.46Z"/><path class="cls-2" d="M85,68.12H81.93a1,1,0,0,1-.85-.65l-.76-2.23H75.08l-.78,2.23a1,1,0,0,1-.83.65H70.39a.43.43,0,0,1-.39-.65l5.06-14.9a1,1,0,0,1,.85-.62h3.56a.94.94,0,0,1,.85.62l5.08,14.9A.45.45,0,0,1,85,68.12Zm-8.74-6.53h2.9c-.51-1.63-1-3.41-1.45-5C77.26,58.16,76.76,59.93,76.25,61.59Z"/><path class="cls-2" d="M98,65.08V67.5a.61.61,0,0,1-.6.62h-10a.64.64,0,0,1-.62-.65V52.57a.62.62,0,0,1,.62-.62h2.9a.62.62,0,0,1,.62.62V64.49h6.51A.58.58,0,0,1,98,65.08Z"/><path class="cls-2" d="M103.46,52.57v14.9a.66.66,0,0,1-.64.65H99.87a.64.64,0,0,1-.62-.65V52.57a.62.62,0,0,1,.62-.62h2.95A.64.64,0,0,1,103.46,52.57Z"/><path class="cls-2" d="M115.58,65.08V67.5a.6.6,0,0,1-.6.62h-9.72c-.35,0-.53-.37-.53-.65V66a3.38,3.38,0,0,1,.64-2.12c.44-.73,3.13-5.17,5-8.25H105.6A.62.62,0,0,1,105,55V52.55a.62.62,0,0,1,.62-.6h9a1,1,0,0,1,1,1,7.13,7.13,0,0,1-1,3.7c-.53.86-3,4.93-4.79,7.85H115A.58.58,0,0,1,115.58,65.08Z"/><path class="cls-2" d="M131.43,68.12h-3.06a1,1,0,0,1-.85-.65l-.76-2.23h-5.24l-.79,2.23a1,1,0,0,1-.82.65h-3.09a.43.43,0,0,1-.39-.65l5.06-14.9a1,1,0,0,1,.85-.62h3.57a1,1,0,0,1,.85.62l5.08,14.9A.45.45,0,0,1,131.43,68.12Zm-8.74-6.53h2.9c-.51-1.63-1-3.41-1.45-5C123.7,58.16,123.19,59.93,122.69,61.59Z"/><path class="cls-2" d="M139.71,64.55a11.12,11.12,0,0,0,4-.71c.48-.14.74-.14.92.28l.72,1.91a1,1,0,0,1-.7,1.31,15.14,15.14,0,0,1-5.15.87c-5,0-7.77-3.43-7.77-8.19s2.78-8.16,7.77-8.16a14.4,14.4,0,0,1,5.06.78,1,1,0,0,1,.74,1.31c-.14.37-.53,1.54-.65,1.91s-.41.46-.91.32a12.92,12.92,0,0,0-4-.66c-2.49,0-3.75,1.58-3.75,4.5S137.22,64.55,139.71,64.55Z"/><path class="cls-2" d="M150.91,52.57v14.9a.66.66,0,0,1-.64.65h-3a.64.64,0,0,1-.62-.65V52.57a.62.62,0,0,1,.62-.62h3A.64.64,0,0,1,150.91,52.57Z"/><path class="cls-2" d="M168.69,60a8.27,8.27,0,0,1-16.54,0,8.27,8.27,0,0,1,16.54,0Zm-4.21,0c0-2.92-1.57-4.5-4-4.5s-4.07,1.58-4.07,4.5,1.56,4.53,4.07,4.53S164.48,63,164.48,60Z"/><path class="cls-2" d="M184.6,52.57v14.9a.66.66,0,0,1-.64.65h-3.2a1.35,1.35,0,0,1-1.29-.69l-5.33-8.05v8.09a.64.64,0,0,1-.62.65h-3a.64.64,0,0,1-.62-.65V52.57a.62.62,0,0,1,.62-.62h2.74a1.61,1.61,0,0,1,1.38.83l5.72,8.6V52.57A.62.62,0,0,1,181,52h3A.64.64,0,0,1,184.6,52.57Z"/><path class="cls-2" d="M190.81,55.59v2.48h4.42a.62.62,0,0,1,.62.62v2.42a.6.6,0,0,1-.62.59h-4.42v2.79h6.51a.58.58,0,0,1,.6.59V67.5a.6.6,0,0,1-.6.62h-10a.64.64,0,0,1-.62-.65V52.57a.62.62,0,0,1,.62-.62h10a.6.6,0,0,1,.6.6V55a.6.6,0,0,1-.6.6Z"/><path class="cls-2" d="M203,61.63c-2.2-.71-4.27-2-4.27-5,0-2.74,1.81-4.81,5.54-4.81a22.8,22.8,0,0,1,2.9.28,1,1,0,0,1,.89,1.19l-.34,1.8a.77.77,0,0,1-1,.62,21.35,21.35,0,0,0-2.37-.23c-1.26,0-1.61.32-1.61.89,0,.76.67,1,2.46,1.55,2.58.8,4.32,2.16,4.32,5A5.14,5.14,0,0,1,204,68.21a15.73,15.73,0,0,1-3.79-.41,1,1,0,0,1-.83-1.24c.09-.37.34-1.36.44-1.73a.79.79,0,0,1,1-.64,12.71,12.71,0,0,0,3,.36c1.17,0,1.7-.46,1.7-1.21S205,62.28,203,61.63Z"/><path class="cls-2" d="M29.07,102.81V106a.79.79,0,0,1-.78.78h-8.5V110h5.76a.78.78,0,0,1,.79.81V114a.76.76,0,0,1-.79.78H19.79v7.53a.85.85,0,0,1-.83.84H15.21a.83.83,0,0,1-.81-.84V102.84a.81.81,0,0,1,.81-.81H28.29A.79.79,0,0,1,29.07,102.81Z"/><path class="cls-2" d="M49,122.28c.18.45,0,.84-.48.84H44.7a1.37,1.37,0,0,1-1.17-.84s-.42-.9-1.2-2.76-1.74-2.79-3.48-2.79h-.54v5.55a.84.84,0,0,1-.85.84H33.62a.83.83,0,0,1-.8-.84V102.84a.8.8,0,0,1,.8-.81H41c6,0,8.21,3.39,8.21,7.23a6.39,6.39,0,0,1-4,6.33,9.33,9.33,0,0,1,2.46,3.54C48.5,121.05,49,122.28,49,122.28ZM40.53,106.8l-2.22,0V112h2.22c2.76,0,3.33-1.2,3.33-2.58S43.29,106.8,40.53,106.8Z"/><path class="cls-2" d="M58.41,106.77V110h5.76a.8.8,0,0,1,.8.81V114a.77.77,0,0,1-.8.78H58.41v3.63h8.48a.76.76,0,0,1,.79.78v3.15a.78.78,0,0,1-.79.81H53.82a.83.83,0,0,1-.81-.84V102.84a.81.81,0,0,1,.81-.81H66.89a.78.78,0,0,1,.79.78V106a.78.78,0,0,1-.79.78Z"/><path class="cls-2" d="M80.33,118.47a14.6,14.6,0,0,0,5.25-.93c.63-.18,1-.18,1.21.36s.75,2,.92,2.49a1.26,1.26,0,0,1-.9,1.71,19.56,19.56,0,0,1-6.72,1.14c-6.51,0-10.13-4.47-10.13-10.68s3.62-10.65,10.13-10.65a18.74,18.74,0,0,1,6.61,1,1.29,1.29,0,0,1,1,1.71c-.18.48-.69,2-.84,2.49s-.54.6-1.19.42a16.86,16.86,0,0,0-5.29-.87c-3.23,0-4.88,2.07-4.88,5.88S77.1,118.47,80.33,118.47Z"/><path class="cls-2" d="M91.53,102.84a.8.8,0,0,1,.81-.81h3.87a.81.81,0,0,1,.81.81v12c0,2.49,1.35,3.66,3.77,3.66s3.79-1.17,3.79-3.66v-12a.8.8,0,0,1,.8-.81h3.84a.83.83,0,0,1,.84.81v12c0,5.49-3.27,8.43-9.27,8.43s-9.26-2.94-9.26-8.43Z"/><path class="cls-2" d="M119.79,106.77V110h5.75a.81.81,0,0,1,.82.81V114a.78.78,0,0,1-.82.78h-5.75v3.63h8.49a.75.75,0,0,1,.77.78v3.15a.78.78,0,0,1-.77.81H115.2a.83.83,0,0,1-.81-.84V102.84a.81.81,0,0,1,.81-.81h13.08a.77.77,0,0,1,.77.78V106a.77.77,0,0,1-.77.78Z"/><path class="cls-2" d="M151.91,102.84v19.44a.85.85,0,0,1-.84.84H146.9a1.75,1.75,0,0,1-1.68-.9l-6.95-10.5v10.56a.83.83,0,0,1-.81.84h-3.87a.83.83,0,0,1-.81-.84V102.84a.8.8,0,0,1,.81-.81h3.57a2.09,2.09,0,0,1,1.8,1.08l7.46,11.22V102.84a.81.81,0,0,1,.81-.81h3.84A.83.83,0,0,1,151.91,102.84Z"/><path class="cls-2" d="M172,102.81V106a.77.77,0,0,1-.77.78h-4.9v15.51a.85.85,0,0,1-.84.84h-3.75a.83.83,0,0,1-.8-.84V106.77H156a.89.89,0,0,1-.82-.87v-3.09A.81.81,0,0,1,156,102h15.18A.77.77,0,0,1,172,102.81Z"/><path class="cls-2" d="M180.74,106.77V110h5.76a.8.8,0,0,1,.81.81V114a.78.78,0,0,1-.81.78h-5.76v3.63h8.49a.76.76,0,0,1,.78.78v3.15a.78.78,0,0,1-.78.81H176.15a.83.83,0,0,1-.8-.84V102.84a.8.8,0,0,1,.8-.81h13.08a.77.77,0,0,1,.78.78V106a.77.77,0,0,1-.78.78Z"/><path class="cls-2" d="M198.71,114.66c-2.88-.93-5.58-2.67-5.58-6.48,0-3.57,2.37-6.27,7.24-6.27a30,30,0,0,1,3.77.36,1.27,1.27,0,0,1,1.17,1.56c-.09.48-.35,1.86-.45,2.34a1,1,0,0,1-1.29.81,29.25,29.25,0,0,0-3.09-.3c-1.65,0-2.1.42-2.1,1.17,0,1,.87,1.26,3.21,2,3.37,1,5.64,2.82,5.64,6.48s-2.4,6.9-7.23,6.9a20.57,20.57,0,0,1-4.95-.54,1.29,1.29,0,0,1-1.08-1.62l.57-2.25a1,1,0,0,1,1.29-.84,16.51,16.51,0,0,0,3.93.48c1.53,0,2.22-.6,2.22-1.59S201.32,115.5,198.71,114.66Z"/><path class="cls-2" d="M30.92,167.56c0,5.13-3,10.56-10.64,10.56H15.45a.81.81,0,0,1-.81-.81V157.87a.81.81,0,0,1,.81-.81h4.83C27.93,157.06,30.92,162.43,30.92,167.56Zm-2.48,0c0-4-1.86-8.16-8.16-8.16H17v16.38h3.24C26.58,175.78,28.44,171.52,28.44,167.56Z"/><path class="cls-2" d="M37.83,159.4v6.54h6.74a.8.8,0,0,1,.79.78v.78a.8.8,0,0,1-.79.78H37.83v7.5h9.38a.8.8,0,0,1,.78.81v.75a.77.77,0,0,1-.78.78h-11a.8.8,0,0,1-.81-.81V157.87a.8.8,0,0,1,.81-.81H47.3a.79.79,0,0,1,.78.78v.78a.79.79,0,0,1-.78.78Z"/><path class="cls-2" d="M78.05,157.84v.78a.79.79,0,0,1-.78.78H71.75v17.91a.81.81,0,0,1-.81.81h-.75a.81.81,0,0,1-.81-.81V159.4H63.87a.89.89,0,0,1-.79-.87v-.69a.8.8,0,0,1,.79-.78h13.4A.79.79,0,0,1,78.05,157.84Z"/><path class="cls-2" d="M82.08,157.87a.8.8,0,0,1,.8-.81h.84a.83.83,0,0,1,.84.81v12.69c0,4.08,2.16,5.34,5.23,5.34S95,174.64,95,170.56V157.87a.84.84,0,0,1,.84-.81h.84a.81.81,0,0,1,.81.81v12.21c0,4.83-2.31,8.19-7.67,8.19s-7.71-3.36-7.71-8.19Z"/><path class="cls-2" d="M124.29,157.87v12.18c0,4.83-1.26,8.22-6,8.22a21.63,21.63,0,0,1-4.41-.54c-.57-.15-.84-.48-.72-1,.06-.27.15-.57.24-.84.18-.72.86-.63,1.26-.54a17.13,17.13,0,0,0,3.63.54c2.39,0,3.47-1.53,3.47-4.89V157.87a.82.82,0,0,1,.82-.81h.86A.82.82,0,0,1,124.29,157.87Z"/><path class="cls-2" d="M129.38,157.87a.82.82,0,0,1,.82-.81H131a.83.83,0,0,1,.84.81v12.69c0,4.08,2.16,5.34,5.21,5.34s5.2-1.26,5.2-5.34V157.87a.82.82,0,0,1,.83-.81H144a.81.81,0,0,1,.81.81v12.21c0,4.83-2.31,8.19-7.68,8.19s-7.71-3.36-7.71-8.19Z"/><path class="cls-2" d="M152.75,157.87v19.44a.83.83,0,0,1-.84.81h-.84a.81.81,0,0,1-.81-.81V157.87a.81.81,0,0,1,.81-.81h.84A.83.83,0,0,1,152.75,157.87Z"/><path class="cls-2" d="M167.3,175.9a15.57,15.57,0,0,0,5.28-.9c.63-.21,1-.42,1.29.24.15.36.3.72.39,1,.12.42.12.75-.72,1a18.82,18.82,0,0,1-6.24,1.05c-5.88,0-10.13-4.8-10.13-10.68s4.25-10.65,10.13-10.65a18.93,18.93,0,0,1,6.24,1c.84.27.84.57.72,1s-.24.66-.39,1c-.27.63-.66.45-1.29.24a14.86,14.86,0,0,0-5.28-.9c-4.53,0-7.65,3.48-7.65,8.28S162.77,175.9,167.3,175.9Z"/><path class="cls-2" d="M181.25,157.87v19.44a.82.82,0,0,1-.83.81h-.84a.8.8,0,0,1-.81-.81V157.87a.8.8,0,0,1,.81-.81h.84A.82.82,0,0,1,181.25,157.87Z"/><path class="cls-2" d="M207,167.59a10.66,10.66,0,1,1-10.68-10.65A10.68,10.68,0,0,1,207,167.59Zm-2.48,0a8.18,8.18,0,1,0-8.2,8.34A8,8,0,0,0,204.54,167.59Z"/></g></g></svg>