<svg xmlns="http://www.w3.org/2000/svg" viewBox="0 0 221 221"><defs><style>.cls-1{fill:#401abd;}.cls-2{fill:#fff;}</style></defs><g id="Capa_2" data-name="Capa 2"><g id="Capa_1-2" data-name="Capa 1"><rect class="cls-1" width="221" height="221" rx="20"/><path class="cls-2" d="M56.92,75.59h-4a1.3,1.3,0,0,1-1.11-.84l-1-2.91H44l-1,2.91a1.26,1.26,0,0,1-1.08.84h-4a.56.56,0,0,1-.51-.84L44,55.32a1.28,1.28,0,0,1,1.11-.81h4.65a1.22,1.22,0,0,1,1.11.81l6.63,19.43A.58.58,0,0,1,56.92,75.59Zm-11.4-8.51H49.3C48.64,65,48,62.64,47.41,60.63,46.84,62.61,46.18,64.92,45.52,67.08Z"/><path class="cls-2" d="M68.78,70.94A14.63,14.63,0,0,0,74,70c.63-.19,1-.19,1.2.36s.75,2,.93,2.48a1.26,1.26,0,0,1-.9,1.71,19.58,19.58,0,0,1-6.71,1.14C62,75.71,58.39,71.25,58.39,65S62,54.39,68.54,54.39a18.61,18.61,0,0,1,6.59,1,1.3,1.3,0,0,1,1,1.71c-.18.48-.69,2-.84,2.49s-.54.6-1.2.42a16.7,16.7,0,0,0-5.27-.87c-3.24,0-4.9,2.07-4.9,5.88S65.54,70.94,68.78,70.94Z"/><path class="cls-2" d="M87.88,70.94A14.6,14.6,0,0,0,93.13,70c.64-.19,1-.19,1.2.36s.75,2,.93,2.48a1.25,1.25,0,0,1-.89,1.71,19.62,19.62,0,0,1-6.73,1.14c-6.51,0-10.13-4.46-10.13-10.67s3.62-10.65,10.13-10.65a18.66,18.66,0,0,1,6.61,1,1.3,1.3,0,0,1,1,1.71c-.18.48-.7,2-.84,2.49s-.55.6-1.2.42a16.8,16.8,0,0,0-5.29-.87C84.65,59.16,83,61.23,83,65S84.65,70.94,87.88,70.94Z"/><path class="cls-2" d="M103.49,59.25v3.24h5.76a.8.8,0,0,1,.8.81v3.15a.77.77,0,0,1-.8.78h-5.76v3.62H112a.76.76,0,0,1,.79.78v3.15a.78.78,0,0,1-.79.81H98.9a.83.83,0,0,1-.81-.84V55.32a.81.81,0,0,1,.81-.81H112a.78.78,0,0,1,.79.78v3.18a.78.78,0,0,1-.79.78Z"/><path class="cls-2" d="M120.44,67.14c-2.89-.93-5.58-2.67-5.58-6.48,0-3.57,2.36-6.27,7.22-6.27a30.29,30.29,0,0,1,3.79.36A1.28,1.28,0,0,1,127,56.31c-.09.48-.37,1.86-.46,2.34-.15.69-.62.9-1.29.81a29.1,29.1,0,0,0-3.08-.3c-1.66,0-2.1.42-2.1,1.17,0,1,.86,1.26,3.2,2,3.36,1,5.65,2.82,5.65,6.47s-2.41,6.9-7.24,6.9a20.41,20.41,0,0,1-4.94-.54,1.29,1.29,0,0,1-1.08-1.62c.11-.48.44-1.77.57-2.25a1,1,0,0,1,1.28-.84,16.58,16.58,0,0,0,3.93.48c1.53,0,2.23-.6,2.23-1.59S123,68,120.44,67.14Z"/><path class="cls-2" d="M152.41,65c0,5.9-3.93,10.67-10.77,10.67S130.85,70.94,130.85,65s4-10.65,10.79-10.65S152.41,59.16,152.41,65Zm-5.49,0c0-3.81-2-5.88-5.28-5.88s-5.31,2.07-5.31,5.88,2,5.9,5.31,5.9S146.92,68.88,146.92,65Z"/><path class="cls-2" d="M180.77,75.59h-1a1.23,1.23,0,0,1-1.08-.81s-.42-1.11-1.44-4.13h-8l-1.44,4.13a1.24,1.24,0,0,1-1.08.81h-1a.56.56,0,0,1-.54-.81l6.62-19.43a1.25,1.25,0,0,1,1.09-.81h.72a1.24,1.24,0,0,1,1.08.81l6.62,19.43A.56.56,0,0,1,180.77,75.59Zm-4.29-7.28c-.12-.33-.24-.66-.36-1-1.2-3.54-2.25-7.41-2.88-9.75-.63,2.34-1.68,6.21-2.88,9.75-.12.36-.24.69-.36,1Z"/><path class="cls-2" d="M43.32,105.35v19.43a.83.83,0,0,1-.84.81h-.84a.81.81,0,0,1-.81-.81V105.35a.81.81,0,0,1,.81-.81h.84A.83.83,0,0,1,43.32,105.35Z"/><path class="cls-2" d="M63.48,105.35v19.43a.81.81,0,0,1-.81.81h-.51a1.92,1.92,0,0,1-1.38-.81L50.19,109.61v15.17a.81.81,0,0,1-.81.81h-.87a.81.81,0,0,1-.81-.81V105.35a.81.81,0,0,1,.81-.81h.33a2.14,2.14,0,0,1,1.41.81L61,120.79V105.35a.81.81,0,0,1,.81-.81h.87A.81.81,0,0,1,63.48,105.35Z"/><path class="cls-2" d="M80.67,105.32v.78a.79.79,0,0,1-.78.78H70.41v6.54H76.8a.79.79,0,0,1,.78.78V115a.79.79,0,0,1-.78.78H70.41v9a.81.81,0,0,1-.81.81h-.84a.81.81,0,0,1-.81-.81V105.35a.81.81,0,0,1,.81-.81H79.89A.79.79,0,0,1,80.67,105.32Z"/><path class="cls-2" d="M103.17,115.06a10.67,10.67,0,1,1-10.68-10.64A10.68,10.68,0,0,1,103.17,115.06Zm-2.49,0a8.18,8.18,0,1,0-8.19,8.34A8,8,0,0,0,100.68,115.06Z"/><path class="cls-2" d="M120.39,124.78c.18.45,0,.81-.48.81H119a1.43,1.43,0,0,1-1.17-.81s-.36-.9-1.17-2.76a5.44,5.44,0,0,0-5.1-3.65h-2.49v6.41a.83.83,0,0,1-.84.81h-.84a.81.81,0,0,1-.81-.81V105.35a.81.81,0,0,1,.81-.81h6c5,0,7.62,3.15,7.62,7a6.4,6.4,0,0,1-4.71,6.48,8.7,8.7,0,0,1,2.7,3.65C119.85,123.55,120.39,124.78,120.39,124.78Zm-7-17.9h-4.35V116h4.35c3.69,0,5.22-2.18,5.22-4.52S117.12,106.88,113.43,106.88Z"/><path class="cls-2" d="M146.7,124.78a.74.74,0,0,1-.75.81h-.84a.91.91,0,0,1-.9-.81L143,111.05l-6,13.73a1.52,1.52,0,0,1-1.26.81H135a1.52,1.52,0,0,1-1.26-.81l-6.12-14-1.29,14a.88.88,0,0,1-.87.81h-.87a.72.72,0,0,1-.72-.81l1.77-19.43a.91.91,0,0,1,.9-.81h.3a1.39,1.39,0,0,1,1.17.81l7.32,16.76,7.32-16.76a1.46,1.46,0,0,1,1.11-.81h.3a.93.93,0,0,1,.84.81Z"/><path class="cls-2" d="M152.61,106.88v6.54h6.75a.79.79,0,0,1,.78.78V115a.79.79,0,0,1-.78.78h-6.75v7.49H162a.8.8,0,0,1,.78.81v.75a.77.77,0,0,1-.78.78H151a.81.81,0,0,1-.81-.81V105.35a.81.81,0,0,1,.81-.81h11.13a.79.79,0,0,1,.78.78v.78a.79.79,0,0,1-.78.78Z"/><path class="cls-2" d="M171.09,115.19c-2.88-.93-5.52-2.13-5.52-5.64,0-3.24,2.55-5.13,6.75-5.13a29.59,29.59,0,0,1,3.69.33c.72.12.93.42.78,1.2,0,.18-.09.33-.12.54-.15.69-.57.69-1.26.6a23.13,23.13,0,0,0-3-.3c-2.58,0-4.38.63-4.38,2.88,0,1.74,2.07,2.52,4.74,3.36,3.36,1.07,6,2.55,6,6.24,0,3.53-2.37,6.47-7.23,6.47a18.56,18.56,0,0,1-4.11-.45c-.84-.21-1.05-.48-.9-1.26a6.31,6.31,0,0,1,.18-.72c.18-.66.84-.45,1.5-.3a14,14,0,0,0,3.33.37c2.85,0,4.74-1.17,4.74-4C176.34,117.23,174,116.12,171.09,115.19Z"/><path class="cls-2" d="M9.8,156.88v6.54h6.75a.79.79,0,0,1,.78.78V165a.79.79,0,0,1-.78.78H9.8v7.49h9.39a.8.8,0,0,1,.78.81v.75a.77.77,0,0,1-.78.78h-11a.81.81,0,0,1-.81-.81V155.35a.81.81,0,0,1,.81-.81H19.28a.79.79,0,0,1,.78.78v.78a.79.79,0,0,1-.78.78Z"/><path class="cls-2" d="M44.6,174.78a.75.75,0,0,1-.75.81H43a.89.89,0,0,1-.89-.81l-1.26-13.73-6,13.73a1.52,1.52,0,0,1-1.26.81h-.66a1.52,1.52,0,0,1-1.26-.81l-6.12-14-1.29,14a.88.88,0,0,1-.87.81h-.87a.72.72,0,0,1-.72-.81l1.77-19.43a.91.91,0,0,1,.9-.81h.3a1.39,1.39,0,0,1,1.17.81l7.32,16.76,7.32-16.76a1.46,1.46,0,0,1,1.11-.81H42a.94.94,0,0,1,.84.81Z"/><path class="cls-2" d="M61.94,162.1a7.2,7.2,0,0,1-7.62,7.46H50v5.22a.8.8,0,0,1-.8.81h-.87a.81.81,0,0,1-.81-.81V155.35a.81.81,0,0,1,.81-.81h6A7.3,7.3,0,0,1,61.94,162.1Zm-2.4,0a5,5,0,0,0-5.22-5.22H50v10.35h4.36A5,5,0,0,0,59.54,162.1Z"/><path class="cls-2" d="M78.19,174.78c.19.45,0,.81-.48.81h-.9a1.43,1.43,0,0,1-1.17-.81s-.35-.9-1.17-2.76a5.42,5.42,0,0,0-5.09-3.65h-2.5v6.41a.83.83,0,0,1-.84.81h-.83a.81.81,0,0,1-.82-.81V155.35a.81.81,0,0,1,.82-.81h6c5,0,7.62,3.15,7.62,7A6.4,6.4,0,0,1,74.14,168a8.7,8.7,0,0,1,2.7,3.65C77.65,173.55,78.19,174.78,78.19,174.78Zm-7-17.9H66.88V166h4.35c3.69,0,5.23-2.18,5.23-4.52S74.92,156.88,71.23,156.88Z"/><path class="cls-2" d="M83.77,156.88v6.54h6.75a.79.79,0,0,1,.78.78V165a.79.79,0,0,1-.78.78H83.77v7.49h9.39a.8.8,0,0,1,.78.81v.75a.77.77,0,0,1-.78.78h-11a.81.81,0,0,1-.81-.81V155.35a.81.81,0,0,1,.81-.81H93.25a.79.79,0,0,1,.78.78v.78a.79.79,0,0,1-.78.78Z"/><path class="cls-2" d="M101.26,165.19c-2.88-.93-5.52-2.13-5.52-5.64,0-3.24,2.55-5.13,6.75-5.13a29.59,29.59,0,0,1,3.69.33c.72.12.93.42.78,1.2,0,.18-.09.33-.12.54-.15.69-.57.69-1.26.6a23.13,23.13,0,0,0-3-.3c-2.58,0-4.38.63-4.38,2.88,0,1.74,2.07,2.52,4.74,3.36,3.36,1.07,6,2.55,6,6.24,0,3.53-2.37,6.47-7.23,6.47a18.56,18.56,0,0,1-4.11-.45c-.84-.21-1-.48-.9-1.26a6.31,6.31,0,0,1,.18-.72c.18-.66.84-.45,1.5-.3a14,14,0,0,0,3.33.37c2.85,0,4.74-1.17,4.74-4C106.51,167.23,104.17,166.12,101.26,165.19Z"/><path class="cls-2" d="M126,175.59h-1a1.23,1.23,0,0,1-1.08-.81s-.42-1.11-1.44-4.13h-8l-1.44,4.13a1.23,1.23,0,0,1-1.08.81h-1a.56.56,0,0,1-.54-.81l6.63-19.43a1.23,1.23,0,0,1,1.08-.81h.72a1.23,1.23,0,0,1,1.08.81l6.63,19.43A.56.56,0,0,1,126,175.59Zm-4.29-7.28c-.12-.33-.24-.66-.36-1-1.2-3.54-2.25-7.41-2.88-9.75-.63,2.34-1.68,6.21-2.88,9.75-.12.36-.24.69-.36,1Z"/><path class="cls-2" d="M142.87,174.78c.18.45,0,.81-.48.81h-.9a1.43,1.43,0,0,1-1.17-.81s-.36-.9-1.17-2.76a5.44,5.44,0,0,0-5.1-3.65h-2.49v6.41a.83.83,0,0,1-.84.81h-.84a.81.81,0,0,1-.81-.81V155.35a.81.81,0,0,1,.81-.81h6c5,0,7.62,3.15,7.62,7a6.4,6.4,0,0,1-4.71,6.48,8.7,8.7,0,0,1,2.7,3.65C142.33,173.55,142.87,174.78,142.87,174.78Zm-7-17.9h-4.35V166h4.35c3.69,0,5.22-2.18,5.22-4.52S139.6,156.88,135.91,156.88Z"/><path class="cls-2" d="M148.48,155.35v19.43a.83.83,0,0,1-.84.81h-.84a.81.81,0,0,1-.81-.81V155.35a.81.81,0,0,1,.81-.81h.84A.83.83,0,0,1,148.48,155.35Z"/><path class="cls-2" d="M166.54,175.59h-1a1.23,1.23,0,0,1-1.08-.81s-.42-1.11-1.44-4.13h-8l-1.44,4.13a1.23,1.23,0,0,1-1.08.81h-1a.56.56,0,0,1-.54-.81l6.63-19.43a1.23,1.23,0,0,1,1.08-.81h.72a1.23,1.23,0,0,1,1.08.81l6.63,19.43A.56.56,0,0,1,166.54,175.59Zm-4.29-7.28c-.12-.33-.24-.66-.36-1-1.2-3.54-2.25-7.41-2.88-9.75-.63,2.34-1.68,6.21-2.88,9.75-.12.36-.24.69-.36,1Z"/><path class="cls-2" d="M182.2,174.06v.75a.77.77,0,0,1-.78.78h-11a.81.81,0,0,1-.81-.81V155.35a.81.81,0,0,1,.81-.81h.84a.81.81,0,0,1,.81.81v17.9h9.39A.8.8,0,0,1,182.2,174.06Z"/><path class="cls-2" d="M187.09,156.88v6.54h6.75a.79.79,0,0,1,.78.78V165a.79.79,0,0,1-.78.78h-6.75v7.49h9.39a.8.8,0,0,1,.78.81v.75a.77.77,0,0,1-.78.78h-11a.81.81,0,0,1-.81-.81V155.35a.81.81,0,0,1,.81-.81h11.13a.79.79,0,0,1,.78.78v.78a.79.79,0,0,1-.78.78Z"/><path class="cls-2" d="M204.58,165.19c-2.88-.93-5.52-2.13-5.52-5.64,0-3.24,2.55-5.13,6.75-5.13a29.59,29.59,0,0,1,3.69.33c.72.12.93.42.78,1.2,0,.18-.09.33-.12.54-.15.69-.57.69-1.26.6a23.13,23.13,0,0,0-3-.3c-2.58,0-4.38.63-4.38,2.88,0,1.74,2.07,2.52,4.74,3.36,3.36,1.07,6,2.55,6,6.24,0,3.53-2.37,6.47-7.23,6.47a18.56,18.56,0,0,1-4.11-.45c-.84-.21-1-.48-.9-1.26a6.31,6.31,0,0,1,.18-.72c.18-.66.84-.45,1.5-.3a14,14,0,0,0,3.33.37c2.85,0,4.74-1.17,4.74-4C209.83,167.23,207.49,166.12,204.58,165.19Z"/></g></g></svg>