<svg xmlns="http://www.w3.org/2000/svg" viewBox="0 0 202.92 199.39"><defs><style>.cls-1{fill:#0cedae;}.cls-2{fill:#556cf6;}</style></defs><g id="Capa_2" data-name="Capa 2"><g id="Capa_1-2" data-name="Capa 1"><path class="cls-1" d="M124,13.63c-.85,2.9-1.66,5.6-2.45,8.31-5.74,19.85-11.25,39.76-15.85,59.92C103.35,92,100.59,102,98,112c-.07.25-.11.52-.19.9a5.65,5.65,0,0,0,.89-.08q15.74-3.94,31.47-7.89c18.32-4.62,36.49-9.81,54.69-14.86,1.74-.48,3.5-.87,5.31-1.32a8.62,8.62,0,0,1,.85,3.25c.2,3.52.5,7.06.43,10.58a99.69,99.69,0,0,1-6.25,31.84c-.8,2.24-1.57,4.5-2.26,6.78a68,68,0,0,1-15.55,27.11,108.66,108.66,0,0,1-25.05,20.48,75.39,75.39,0,0,1-26,9.35,98.83,98.83,0,0,1-25.88.67,110.78,110.78,0,0,1-23.72-5.38c-3.26-1.09-6.46-2.38-9.69-3.58a85.43,85.43,0,0,1-41.72-34.14,98.65,98.65,0,0,1-12.46-27A82.8,82.8,0,0,1,.13,102.14,88.25,88.25,0,0,1,4.25,79.66c.49-1.56.88-3.15,1.35-4.71A95.11,95.11,0,0,1,11.09,62c4.22-9,10.42-16.44,17.37-23.38a91,91,0,0,1,17-13.85,100.66,100.66,0,0,1,18.74-9.23,63.31,63.31,0,0,1,11.2-2.64c3.18-.51,6.35-1.08,9.54-1.58a27.71,27.71,0,0,1,3.3-.29c7.41-.28,14.84-.59,22.23.34,3.42.42,6.83.92,10.23,1.44C121.77,13,122.78,13.34,124,13.63Z"/><path class="cls-2" d="M111.43,100.19c.71-2.77,1.34-5.25,2-7.73,3.18-12.53,6.26-25.1,9.57-37.6,4.78-18,10.2-35.84,15.9-53.59.12-.37.26-.74.45-1.27a69.14,69.14,0,0,1,16.23,7.07c15.11,9,25.61,18.06,35.71,34.7a89.06,89.06,0,0,1,11.66,29.65C172.16,80.11,141.94,90.14,111.43,100.19Z"/></g></g></svg>